M48
; DRILL file {KiCad 8.0.1} date 2024-10-19T15:05:27+0900
; FORMAT={-:-/ absolute / metric / decimal}
; #@! TF.CreationDate,2024-10-19T15:05:27+09:00
; #@! TF.GenerationSoftware,Kicad,Pcbnew,8.0.1
; #@! TF.FileFunction,MixedPlating,1,2
FMAT,2
METRIC
; #@! TA.AperFunction,Plated,PTH,ViaDrill
T1C0.300
; #@! TA.AperFunction,Plated,PTH,ComponentDrill
T2C0.600
; #@! TA.AperFunction,Plated,PTH,ComponentDrill
T3C0.800
; #@! TA.AperFunction,Plated,PTH,ComponentDrill
T4C0.900
; #@! TA.AperFunction,Plated,PTH,ComponentDrill
T5C1.000
; #@! TA.AperFunction,Plated,PTH,ComponentDrill
T6C2.700
%
G90
G05
T1
X3.81Y77.47
X8.89Y77.47
X20.32Y6.35
X20.32Y1.27
X26.67Y34.29
X29.21Y40.64
X31.75Y46.99
X33.02Y6.35
X33.02Y1.27
X34.29Y52.07
X36.83Y57.15
X41.91Y57.15
X41.91Y52.07
X41.91Y46.99
X41.91Y40.64
X45.72Y6.35
X45.72Y1.27
X52.07Y35.56
X58.42Y38.1
X58.42Y35.56
X58.42Y6.35
X58.42Y1.27
T3
X5.08Y10.16
X8.89Y67.31
X8.89Y59.69
X8.89Y52.07
X8.89Y44.45
X8.89Y36.83
X15.24Y10.16
X17.78Y10.16
X19.05Y67.31
X19.05Y59.69
X19.05Y52.07
X19.05Y44.45
X19.05Y36.83
X25.4Y72.39
X25.4Y64.77
X25.4Y57.15
X25.4Y49.53
X25.44Y41.91
X27.9Y72.39
X27.9Y64.77
X27.9Y57.15
X27.9Y49.53
X27.94Y41.91
X27.94Y10.16
X30.48Y10.16
X40.64Y10.16
X43.18Y10.16
X53.34Y10.16
X55.88Y10.16
X58.42Y59.69
X58.42Y57.69
X63.5Y59.69
X63.5Y49.53
X66.04Y10.16
X68.58Y59.69
X68.58Y49.53
T4
X63.5Y44.45
X63.5Y41.91
X68.58Y44.45
X68.58Y41.91
T5
X3.81Y82.55
X3.81Y80.01
X3.81Y21.59
X3.81Y19.05
X6.35Y82.55
X6.35Y80.01
X6.35Y21.59
X6.35Y19.05
X8.89Y82.55
X8.89Y80.01
X8.89Y21.59
X8.89Y19.05
X10.16Y6.35
X11.43Y82.55
X11.43Y80.01
X11.43Y21.59
X11.43Y19.05
X12.7Y6.35
X13.97Y82.55
X13.97Y80.01
X13.97Y21.59
X13.97Y19.05
X15.24Y6.35
X16.51Y82.55
X16.51Y80.01
X16.51Y21.59
X16.51Y19.05
X19.05Y82.55
X19.05Y80.01
X19.05Y21.59
X19.05Y19.05
X21.59Y82.55
X21.59Y80.01
X21.59Y21.59
X21.59Y19.05
X22.875Y6.35
X24.13Y82.55
X24.13Y80.01
X24.13Y21.59
X24.13Y19.05
X25.415Y6.35
X26.67Y82.55
X26.67Y80.01
X26.67Y21.59
X26.67Y19.05
X27.955Y6.35
X29.21Y82.55
X29.21Y80.01
X29.21Y21.59
X29.21Y19.05
X31.75Y82.55
X31.75Y80.01
X31.75Y21.59
X31.75Y19.05
X34.29Y82.55
X34.29Y80.01
X34.29Y21.59
X34.29Y19.05
X35.56Y6.35
X36.83Y82.55
X36.83Y80.01
X36.83Y21.59
X36.83Y19.05
X38.1Y6.35
X39.37Y82.55
X39.37Y80.01
X39.37Y21.59
X39.37Y19.05
X40.64Y6.35
X41.91Y82.55
X41.91Y80.01
X41.91Y21.59
X41.91Y19.05
X44.45Y82.55
X44.45Y80.01
X44.45Y21.59
X44.45Y19.05
X46.99Y82.55
X46.99Y80.01
X46.99Y21.59
X46.99Y19.05
X48.275Y6.35
X49.53Y82.55
X49.53Y80.01
X49.53Y21.59
X49.53Y19.05
X50.815Y6.35
X53.355Y6.35
X60.96Y6.35
X63.5Y6.35
X66.04Y6.35
T6
X55.08Y73.45
X55.08Y66.25
T2
G00X61.63Y76.6
M15
G01X60.53Y76.6
M16
G05
G00X61.63Y63.1
M15
G01X60.53Y63.1
M16
G05
M30
