%TF.GenerationSoftware,KiCad,Pcbnew,8.0.1*%
%TF.CreationDate,2024-10-19T15:00:55+09:00*%
%TF.ProjectId,kadai1,6b616461-6931-42e6-9b69-6361645f7063,rev?*%
%TF.SameCoordinates,PX4509570PY2f3c490*%
%TF.FileFunction,Soldermask,Bot*%
%TF.FilePolarity,Negative*%
%FSLAX46Y46*%
G04 Gerber Fmt 4.6, Leading zero omitted, Abs format (unit mm)*
G04 Created by KiCad (PCBNEW 8.0.1) date 2024-10-19 15:00:55*
%MOMM*%
%LPD*%
G01*
G04 APERTURE LIST*
G04 Aperture macros list*
%AMRoundRect*
0 Rectangle with rounded corners*
0 $1 Rounding radius*
0 $2 $3 $4 $5 $6 $7 $8 $9 X,Y pos of 4 corners*
0 Add a 4 corners polygon primitive as box body*
4,1,4,$2,$3,$4,$5,$6,$7,$8,$9,$2,$3,0*
0 Add four circle primitives for the rounded corners*
1,1,$1+$1,$2,$3*
1,1,$1+$1,$4,$5*
1,1,$1+$1,$6,$7*
1,1,$1+$1,$8,$9*
0 Add four rect primitives between the rounded corners*
20,1,$1+$1,$2,$3,$4,$5,0*
20,1,$1+$1,$4,$5,$6,$7,0*
20,1,$1+$1,$6,$7,$8,$9,0*
20,1,$1+$1,$8,$9,$2,$3,0*%
G04 Aperture macros list end*
%ADD10C,1.600000*%
%ADD11O,1.600000X1.600000*%
%ADD12R,1.700000X1.700000*%
%ADD13O,1.700000X1.700000*%
%ADD14R,1.800000X1.800000*%
%ADD15C,1.800000*%
%ADD16C,1.700000*%
%ADD17R,1.600000X1.600000*%
%ADD18R,2.000000X0.900000*%
%ADD19RoundRect,1.025000X-1.025000X1.025000X-1.025000X-1.025000X1.025000X-1.025000X1.025000X1.025000X0*%
%ADD20C,4.100000*%
%ADD21R,1.208024X0.466344*%
G04 APERTURE END LIST*
D10*
%TO.C,R2*%
X63500000Y-26670000D03*
D11*
X63500000Y-36830000D03*
%TD*%
D12*
%TO.C,J3*%
X48275000Y-80010000D03*
D13*
X50815000Y-80010000D03*
X53355000Y-80010000D03*
%TD*%
D10*
%TO.C,R10*%
X17780000Y-76200000D03*
D11*
X27940000Y-76200000D03*
%TD*%
D10*
%TO.C,R9*%
X8890000Y-41910000D03*
D11*
X19050000Y-41910000D03*
%TD*%
D10*
%TO.C,C6*%
X25400000Y-13970000D03*
X27900000Y-13970000D03*
%TD*%
D12*
%TO.C,J5*%
X22875000Y-80010000D03*
D13*
X25415000Y-80010000D03*
X27955000Y-80010000D03*
%TD*%
D10*
%TO.C,R8*%
X55880000Y-76200000D03*
D11*
X66040000Y-76200000D03*
%TD*%
D10*
%TO.C,R4*%
X8890000Y-26670000D03*
D11*
X19050000Y-26670000D03*
%TD*%
D10*
%TO.C,C5*%
X25400000Y-21590000D03*
X27900000Y-21590000D03*
%TD*%
D14*
%TO.C,D2*%
X63500000Y-44450000D03*
D15*
X63500000Y-41910000D03*
%TD*%
D10*
%TO.C,R11*%
X8890000Y-49530000D03*
D11*
X19050000Y-49530000D03*
%TD*%
D10*
%TO.C,C4*%
X25400000Y-29210000D03*
X27900000Y-29210000D03*
%TD*%
D12*
%TO.C,J6*%
X10160000Y-80010000D03*
D13*
X12700000Y-80010000D03*
X15240000Y-80010000D03*
%TD*%
D14*
%TO.C,D1*%
X68580000Y-44450000D03*
D15*
X68580000Y-41910000D03*
%TD*%
D10*
%TO.C,R6*%
X8890000Y-34290000D03*
D11*
X19050000Y-34290000D03*
%TD*%
D10*
%TO.C,R1*%
X68580000Y-26670000D03*
D11*
X68580000Y-36830000D03*
%TD*%
D16*
%TO.C,U6*%
X19050000Y-64770000D03*
X11430000Y-67310000D03*
X16510000Y-64770000D03*
X11430000Y-6350000D03*
X8890000Y-67310000D03*
X44450000Y-67310000D03*
X31750000Y-64770000D03*
X11430000Y-3810000D03*
X8890000Y-64770000D03*
X24130000Y-64770000D03*
X21590000Y-64770000D03*
X36830000Y-64770000D03*
X39370000Y-64770000D03*
X46990000Y-6350000D03*
X49530000Y-6350000D03*
X41910000Y-64770000D03*
X16510000Y-6350000D03*
X19050000Y-6350000D03*
X21590000Y-6350000D03*
X31750000Y-6350000D03*
X29210000Y-6350000D03*
X44450000Y-6350000D03*
X19050000Y-3810000D03*
X16510000Y-3810000D03*
X19050000Y-67310000D03*
X21590000Y-67310000D03*
X24130000Y-67310000D03*
X6350000Y-64770000D03*
X39370000Y-67310000D03*
X41910000Y-67310000D03*
X44450000Y-64770000D03*
X31750000Y-3810000D03*
X29210000Y-3810000D03*
X41910000Y-6350000D03*
X36830000Y-6350000D03*
X39370000Y-6350000D03*
X24130000Y-6350000D03*
X29210000Y-67310000D03*
X6350000Y-6350000D03*
X8890000Y-6350000D03*
X34290000Y-6350000D03*
X21590000Y-3810000D03*
X39370000Y-3810000D03*
X36830000Y-3810000D03*
X34290000Y-3810000D03*
X49530000Y-64770000D03*
X46990000Y-64770000D03*
X46990000Y-67310000D03*
X49530000Y-67310000D03*
X44450000Y-3810000D03*
X8890000Y-3810000D03*
X6350000Y-3810000D03*
X26670000Y-6350000D03*
X3810000Y-3810000D03*
X3810000Y-6350000D03*
X3810000Y-67310000D03*
X3810000Y-64770000D03*
X6350000Y-67310000D03*
X31750000Y-67310000D03*
X34290000Y-67310000D03*
X36830000Y-67310000D03*
X26670000Y-67310000D03*
X11430000Y-64770000D03*
X26670000Y-64770000D03*
X29210000Y-64770000D03*
X13970000Y-6350000D03*
X26670000Y-3810000D03*
X41910000Y-3810000D03*
X16510000Y-67310000D03*
X13970000Y-64770000D03*
X13970000Y-67310000D03*
X34290000Y-64770000D03*
X13970000Y-3810000D03*
X24130000Y-3810000D03*
X46990000Y-3810000D03*
X49530000Y-3810000D03*
%TD*%
D10*
%TO.C,C2*%
X25440000Y-44450000D03*
X27940000Y-44450000D03*
%TD*%
%TO.C,C3*%
X25400000Y-36830000D03*
X27900000Y-36830000D03*
%TD*%
D17*
%TO.C,C1*%
X58420000Y-26670000D03*
D10*
X58420000Y-28670000D03*
%TD*%
D12*
%TO.C,J2*%
X60960000Y-80010000D03*
D13*
X63500000Y-80010000D03*
X66040000Y-80010000D03*
%TD*%
D12*
%TO.C,J4*%
X35560000Y-80010000D03*
D13*
X38100000Y-80010000D03*
X40640000Y-80010000D03*
%TD*%
D10*
%TO.C,R5*%
X43180000Y-76200000D03*
D11*
X53340000Y-76200000D03*
%TD*%
D18*
%TO.C,J1*%
X61080000Y-9760000D03*
X61080000Y-23260000D03*
D19*
X55080000Y-12910000D03*
D20*
X55080000Y-20110000D03*
%TD*%
D10*
%TO.C,R12*%
X5080000Y-76200000D03*
D11*
X15240000Y-76200000D03*
%TD*%
D10*
%TO.C,R7*%
X30480000Y-76200000D03*
D11*
X40640000Y-76200000D03*
%TD*%
D10*
%TO.C,R3*%
X8890000Y-19050000D03*
D11*
X19050000Y-19050000D03*
%TD*%
D21*
%TO.C,U3*%
X20688300Y-34290000D03*
X20688300Y-31750000D03*
X27571700Y-31750000D03*
X27571700Y-33020000D03*
X27571700Y-34290000D03*
%TD*%
%TO.C,U2*%
X20688300Y-26670000D03*
X20688300Y-24130000D03*
X27571700Y-24130000D03*
X27571700Y-25400000D03*
X27571700Y-26670000D03*
%TD*%
%TO.C,U4*%
X20688300Y-41910000D03*
X20688300Y-39370000D03*
X27571700Y-39370000D03*
X27571700Y-40640000D03*
X27571700Y-41910000D03*
%TD*%
%TO.C,U1*%
X20688300Y-19050000D03*
X20688300Y-16510000D03*
X27571700Y-16510000D03*
X27571700Y-17780000D03*
X27571700Y-19050000D03*
%TD*%
%TO.C,U5*%
X20688300Y-49530000D03*
X20688300Y-46990000D03*
X27571700Y-46990000D03*
X27571700Y-48260000D03*
X27571700Y-49530000D03*
%TD*%
M02*
