%TF.GenerationSoftware,KiCad,Pcbnew,8.0.1*%
%TF.CreationDate,2024-10-19T15:05:20+09:00*%
%TF.ProjectId,kadai1,6b616461-6931-42e6-9b69-6361645f7063,rev?*%
%TF.SameCoordinates,PX4509570PY8198450*%
%TF.FileFunction,Copper,L2,Bot*%
%TF.FilePolarity,Positive*%
%FSLAX46Y46*%
G04 Gerber Fmt 4.6, Leading zero omitted, Abs format (unit mm)*
G04 Created by KiCad (PCBNEW 8.0.1) date 2024-10-19 15:05:20*
%MOMM*%
%LPD*%
G01*
G04 APERTURE LIST*
G04 Aperture macros list*
%AMRoundRect*
0 Rectangle with rounded corners*
0 $1 Rounding radius*
0 $2 $3 $4 $5 $6 $7 $8 $9 X,Y pos of 4 corners*
0 Add a 4 corners polygon primitive as box body*
4,1,4,$2,$3,$4,$5,$6,$7,$8,$9,$2,$3,0*
0 Add four circle primitives for the rounded corners*
1,1,$1+$1,$2,$3*
1,1,$1+$1,$4,$5*
1,1,$1+$1,$6,$7*
1,1,$1+$1,$8,$9*
0 Add four rect primitives between the rounded corners*
20,1,$1+$1,$2,$3,$4,$5,0*
20,1,$1+$1,$4,$5,$6,$7,0*
20,1,$1+$1,$6,$7,$8,$9,0*
20,1,$1+$1,$8,$9,$2,$3,0*%
G04 Aperture macros list end*
%TA.AperFunction,ComponentPad*%
%ADD10C,1.600000*%
%TD*%
%TA.AperFunction,ComponentPad*%
%ADD11O,1.600000X1.600000*%
%TD*%
%TA.AperFunction,ComponentPad*%
%ADD12R,1.700000X1.700000*%
%TD*%
%TA.AperFunction,ComponentPad*%
%ADD13O,1.700000X1.700000*%
%TD*%
%TA.AperFunction,ComponentPad*%
%ADD14R,1.800000X1.800000*%
%TD*%
%TA.AperFunction,ComponentPad*%
%ADD15C,1.800000*%
%TD*%
%TA.AperFunction,ComponentPad*%
%ADD16C,1.700000*%
%TD*%
%TA.AperFunction,ComponentPad*%
%ADD17R,1.600000X1.600000*%
%TD*%
%TA.AperFunction,ComponentPad*%
%ADD18R,2.000000X0.900000*%
%TD*%
%TA.AperFunction,ComponentPad*%
%ADD19RoundRect,1.025000X-1.025000X1.025000X-1.025000X-1.025000X1.025000X-1.025000X1.025000X1.025000X0*%
%TD*%
%TA.AperFunction,ComponentPad*%
%ADD20C,4.100000*%
%TD*%
%TA.AperFunction,SMDPad,CuDef*%
%ADD21R,1.208024X0.466344*%
%TD*%
%TA.AperFunction,ViaPad*%
%ADD22C,0.600000*%
%TD*%
%TA.AperFunction,Conductor*%
%ADD23C,1.000000*%
%TD*%
%TA.AperFunction,Conductor*%
%ADD24C,2.000000*%
%TD*%
%TA.AperFunction,Conductor*%
%ADD25C,1.800000*%
%TD*%
G04 APERTURE END LIST*
D10*
%TO.P,R2,1*%
%TO.N,VCC*%
X63500000Y59690000D03*
D11*
%TO.P,R2,2*%
%TO.N,Net-(D2-A)*%
X63500000Y49530000D03*
%TD*%
D12*
%TO.P,J3,1,Pin_1*%
%TO.N,GND1*%
X48275000Y6350000D03*
D13*
%TO.P,J3,2,Pin_2*%
%TO.N,VCC*%
X50815000Y6350000D03*
%TO.P,J3,3,Pin_3*%
%TO.N,PWM2*%
X53355000Y6350000D03*
%TD*%
D10*
%TO.P,R10,1*%
%TO.N,VCC*%
X17780000Y10160000D03*
D11*
%TO.P,R10,2*%
%TO.N,PWM4*%
X27940000Y10160000D03*
%TD*%
D10*
%TO.P,R9,1*%
%TO.N,B9*%
X8890000Y44450000D03*
D11*
%TO.P,R9,2*%
%TO.N,Net-(R9-Pad2)*%
X19050000Y44450000D03*
%TD*%
D10*
%TO.P,C6,1*%
%TO.N,VCC*%
X25400000Y72390000D03*
%TO.P,C6,2*%
%TO.N,GND1*%
X27900000Y72390000D03*
%TD*%
D12*
%TO.P,J5,1,Pin_1*%
%TO.N,GND1*%
X22875000Y6350000D03*
D13*
%TO.P,J5,2,Pin_2*%
%TO.N,VCC*%
X25415000Y6350000D03*
%TO.P,J5,3,Pin_3*%
%TO.N,PWM4*%
X27955000Y6350000D03*
%TD*%
D10*
%TO.P,R8,1*%
%TO.N,VCC*%
X55880000Y10160000D03*
D11*
%TO.P,R8,2*%
%TO.N,PWM1*%
X66040000Y10160000D03*
%TD*%
D10*
%TO.P,R4,1*%
%TO.N,B7*%
X8890000Y59690000D03*
D11*
%TO.P,R4,2*%
%TO.N,Net-(R4-Pad2)*%
X19050000Y59690000D03*
%TD*%
D10*
%TO.P,C5,1*%
%TO.N,VCC*%
X25400000Y64770000D03*
%TO.P,C5,2*%
%TO.N,GND1*%
X27900000Y64770000D03*
%TD*%
D14*
%TO.P,D2,1,K*%
%TO.N,GND1*%
X63500000Y41910000D03*
D15*
%TO.P,D2,2,A*%
%TO.N,Net-(D2-A)*%
X63500000Y44450000D03*
%TD*%
D10*
%TO.P,R11,1*%
%TO.N,C6*%
X8890000Y36830000D03*
D11*
%TO.P,R11,2*%
%TO.N,Net-(R11-Pad2)*%
X19050000Y36830000D03*
%TD*%
D10*
%TO.P,C4,1*%
%TO.N,VCC*%
X25400000Y57150000D03*
%TO.P,C4,2*%
%TO.N,GND1*%
X27900000Y57150000D03*
%TD*%
D12*
%TO.P,J6,1,Pin_1*%
%TO.N,GND1*%
X10160000Y6350000D03*
D13*
%TO.P,J6,2,Pin_2*%
%TO.N,VCC*%
X12700000Y6350000D03*
%TO.P,J6,3,Pin_3*%
%TO.N,PWM5*%
X15240000Y6350000D03*
%TD*%
D14*
%TO.P,D1,1,K*%
%TO.N,GND*%
X68580000Y41910000D03*
D15*
%TO.P,D1,2,A*%
%TO.N,Net-(D1-A)*%
X68580000Y44450000D03*
%TD*%
D10*
%TO.P,R6,1*%
%TO.N,B8*%
X8890000Y52070000D03*
D11*
%TO.P,R6,2*%
%TO.N,Net-(R6-Pad2)*%
X19050000Y52070000D03*
%TD*%
D10*
%TO.P,R1,1*%
%TO.N,+5V*%
X68580000Y59690000D03*
D11*
%TO.P,R1,2*%
%TO.N,Net-(D1-A)*%
X68580000Y49530000D03*
%TD*%
D16*
%TO.P,U6,1,RESET*%
%TO.N,unconnected-(U6-RESET-Pad1)*%
X19050000Y21590000D03*
%TO.P,U6,2,BOOT0*%
%TO.N,unconnected-(U6-BOOT0-Pad2)*%
X11430000Y19050000D03*
%TO.P,U6,3,IOREF*%
%TO.N,unconnected-(U6-IOREF-Pad3)*%
X16510000Y21590000D03*
%TO.P,U6,4,AVDD*%
%TO.N,unconnected-(U6-AVDD-Pad4)*%
X11430000Y80010000D03*
%TO.P,U6,5,VDD*%
%TO.N,unconnected-(U6-VDD-Pad5)*%
X8890000Y19050000D03*
%TO.P,U6,6,VBAT*%
%TO.N,unconnected-(U6-VBAT-Pad6)*%
X44450000Y19050000D03*
%TO.P,U6,7,VIN*%
%TO.N,unconnected-(U6-VIN-Pad7)*%
X31750000Y21590000D03*
%TO.P,U6,8,U5V*%
%TO.N,unconnected-(U6-U5V-Pad8)*%
X11430000Y82550000D03*
%TO.P,U6,9,E5V*%
%TO.N,unconnected-(U6-E5V-Pad9)*%
X8890000Y21590000D03*
%TO.P,U6,10,+5V*%
%TO.N,+5V*%
X24130000Y21590000D03*
%TO.P,U6,11,+3V3*%
%TO.N,unconnected-(U6-+3V3-Pad11)*%
X21590000Y21590000D03*
%TO.P,U6,12,PA0(TIM2_CH1/TIM5_CH1/UART4_TX)*%
%TO.N,unconnected-(U6-PA0(TIM2_CH1{slash}TIM5_CH1{slash}UART4_TX)-Pad12)*%
X36830000Y21590000D03*
%TO.P,U6,13,PA1(TIM2_CH2/TIM5CH2/UART4_RX)*%
%TO.N,unconnected-(U6-PA1(TIM2_CH2{slash}TIM5CH2{slash}UART4_RX)-Pad13)*%
X39370000Y21590000D03*
%TO.P,U6,14,PA2(TIM2_CH3/TIM5_CH3/TIM9_CH1/USART2_TX)*%
%TO.N,unconnected-(U6-PA2(TIM2_CH3{slash}TIM5_CH3{slash}TIM9_CH1{slash}USART2_TX)-Pad14)*%
X46990000Y80010000D03*
%TO.P,U6,15,PA3(TIM2_CH4/TIM5_CH4/TIM9_CH2/USART2_RX)*%
%TO.N,unconnected-(U6-PA3(TIM2_CH4{slash}TIM5_CH4{slash}TIM9_CH2{slash}USART2_RX)-Pad15)*%
X49530000Y80010000D03*
%TO.P,U6,16,PA4*%
%TO.N,unconnected-(U6-PA4-Pad16)*%
X41910000Y21590000D03*
%TO.P,U6,17,PA5(TIM2_CH1)*%
%TO.N,unconnected-(U6-PA5(TIM2_CH1)-Pad17)*%
X16510000Y80010000D03*
%TO.P,U6,18,PA6(TIM3_CH1/TIM13_CH1)*%
%TO.N,unconnected-(U6-PA6(TIM3_CH1{slash}TIM13_CH1)-Pad18)*%
X19050000Y80010000D03*
%TO.P,U6,19,PA7(TIM3_CH2/TIM14_CH1)*%
%TO.N,unconnected-(U6-PA7(TIM3_CH2{slash}TIM14_CH1)-Pad19)*%
X21590000Y80010000D03*
%TO.P,U6,20,PA8(TIM1_CH1/12C3_SCL)*%
%TO.N,unconnected-(U6-PA8(TIM1_CH1{slash}12C3_SCL)-Pad20)*%
X31750000Y80010000D03*
%TO.P,U6,21,PA9(TIM1_CH2/USART1_TX)*%
%TO.N,unconnected-(U6-PA9(TIM1_CH2{slash}USART1_TX)-Pad21)*%
X29210000Y80010000D03*
%TO.P,U6,22,PA10(TIM1_CH3/USART1_RX)*%
%TO.N,unconnected-(U6-PA10(TIM1_CH3{slash}USART1_RX)-Pad22)*%
X44450000Y80010000D03*
%TO.P,U6,23,PA11(TIM1_CH4/CAN1_RX)*%
%TO.N,unconnected-(U6-PA11(TIM1_CH4{slash}CAN1_RX)-Pad23)*%
X19050000Y82550000D03*
%TO.P,U6,24,PA12(CAN1_TX)*%
%TO.N,unconnected-(U6-PA12(CAN1_TX)-Pad24)*%
X16510000Y82550000D03*
%TO.P,U6,25,PA13(JTCK-SWDIO)*%
%TO.N,unconnected-(U6-PA13(JTCK-SWDIO)-Pad25)*%
X19050000Y19050000D03*
%TO.P,U6,26,PA14(JTCK-SWCLK)*%
%TO.N,unconnected-(U6-PA14(JTCK-SWCLK)-Pad26)*%
X21590000Y19050000D03*
%TO.P,U6,27,PA15(TIM2_CH1)*%
%TO.N,unconnected-(U6-PA15(TIM2_CH1)-Pad27)*%
X24130000Y19050000D03*
%TO.P,U6,28,PD2(UART5_RX)*%
%TO.N,unconnected-(U6-PD2(UART5_RX)-Pad28)*%
X6350000Y21590000D03*
%TO.P,U6,29,PH0*%
%TO.N,unconnected-(U6-PH0-Pad29)*%
X39370000Y19050000D03*
%TO.P,U6,30,PH1*%
%TO.N,unconnected-(U6-PH1-Pad30)*%
X41910000Y19050000D03*
%TO.P,U6,31,(TIM3_CH3)PB0*%
%TO.N,unconnected-(U6-(TIM3_CH3)PB0-Pad31)*%
X44450000Y21590000D03*
%TO.P,U6,32,(TIM3_CH4)PB1*%
%TO.N,unconnected-(U6-(TIM3_CH4)PB1-Pad32)*%
X31750000Y82550000D03*
%TO.P,U6,33,(TIM2_CH4)PB2*%
%TO.N,unconnected-(U6-(TIM2_CH4)PB2-Pad33)*%
X29210000Y82550000D03*
%TO.P,U6,34,(TIM3_CH1/12C2_SDA)PB3*%
%TO.N,unconnected-(U6-(TIM3_CH1{slash}12C2_SDA)PB3-Pad34)*%
X41910000Y80010000D03*
%TO.P,U6,35,(TIM3_CH1/12C3_SDA)PB4*%
%TO.N,unconnected-(U6-(TIM3_CH1{slash}12C3_SDA)PB4-Pad35)*%
X36830000Y80010000D03*
%TO.P,U6,36,(TIM3_CH2/CAN2_RX)PB5*%
%TO.N,unconnected-(U6-(TIM3_CH2{slash}CAN2_RX)PB5-Pad36)*%
X39370000Y80010000D03*
%TO.P,U6,37,(TIM4_CH1/12C1_SCL/USART1_TX/CAN2_TX)PB6*%
%TO.N,B6*%
X24130000Y80010000D03*
%TO.P,U6,38,(TIM4_CH2/12C1_SDA/USART1_RX)PB7*%
%TO.N,B7*%
X29210000Y19050000D03*
%TO.P,U6,39,(TIM2_CH1/TIM4_CH3/TIM10_CH1/12C1_SCL/CAN1_RX)PB8*%
%TO.N,B8*%
X6350000Y80010000D03*
%TO.P,U6,40,(TIM2_CH2/TIM4_CH4/TIM11_CH1/12C1_SDA/CAN1_TX)PB9*%
%TO.N,B9*%
X8890000Y80010000D03*
%TO.P,U6,41,(TIM_2CH3/12C2_SCL/USART3_RX)PB10*%
%TO.N,unconnected-(U6-(TIM_2CH3{slash}12C2_SCL{slash}USART3_RX)PB10-Pad41)*%
X34290000Y80010000D03*
%TO.P,U6,42,(CAN2_RX)PB12*%
%TO.N,unconnected-(U6-(CAN2_RX)PB12-Pad42)*%
X21590000Y82550000D03*
%TO.P,U6,43,(CAN2_TX)PB13*%
%TO.N,unconnected-(U6-(CAN2_TX)PB13-Pad43)*%
X39370000Y82550000D03*
%TO.P,U6,44,(TIM12_CH1)PB14*%
%TO.N,unconnected-(U6-(TIM12_CH1)PB14-Pad44)*%
X36830000Y82550000D03*
%TO.P,U6,45,(TIM12_CH2)PB15*%
%TO.N,unconnected-(U6-(TIM12_CH2)PB15-Pad45)*%
X34290000Y82550000D03*
%TO.P,U6,46,PC0(PB9)*%
%TO.N,unconnected-(U6-PC0(PB9)-Pad46)*%
X49530000Y21590000D03*
%TO.P,U6,47,PC1(PB9)*%
%TO.N,unconnected-(U6-PC1(PB9)-Pad47)*%
X46990000Y21590000D03*
%TO.P,U6,48,PC2*%
%TO.N,unconnected-(U6-PC2-Pad48)*%
X46990000Y19050000D03*
%TO.P,U6,49,PC3*%
%TO.N,unconnected-(U6-PC3-Pad49)*%
X49530000Y19050000D03*
%TO.P,U6,50,PC4*%
%TO.N,unconnected-(U6-PC4-Pad50)*%
X44450000Y82550000D03*
%TO.P,U6,51,(USART3_RX)PC5*%
%TO.N,unconnected-(U6-(USART3_RX)PC5-Pad51)*%
X8890000Y82550000D03*
%TO.P,U6,52,(TIM3_CH1/TIM8_CH1/USART6_TX)PC6*%
%TO.N,C6*%
X6350000Y82550000D03*
%TO.P,U6,53,(TIM3_CH2/TIM8_CH2/USART6_RX)PC7*%
%TO.N,unconnected-(U6-(TIM3_CH2{slash}TIM8_CH2{slash}USART6_RX)PC7-Pad53)*%
X26670000Y80010000D03*
%TO.P,U6,54,(TIM3_CH3/TIM8_CH3)PC8*%
%TO.N,unconnected-(U6-(TIM3_CH3{slash}TIM8_CH3)PC8-Pad54)*%
X3810000Y82550000D03*
%TO.P,U6,55,(TIM3_CH4/TIM8_CH4/12C3_SDA)PC9*%
%TO.N,unconnected-(U6-(TIM3_CH4{slash}TIM8_CH4{slash}12C3_SDA)PC9-Pad55)*%
X3810000Y80010000D03*
%TO.P,U6,56,(USART3_TX/UART4_TX)PC10*%
%TO.N,unconnected-(U6-(USART3_TX{slash}UART4_TX)PC10-Pad56)*%
X3810000Y19050000D03*
%TO.P,U6,57,(USART3_RX/UART4_RX)PC11*%
%TO.N,unconnected-(U6-(USART3_RX{slash}UART4_RX)PC11-Pad57)*%
X3810000Y21590000D03*
%TO.P,U6,58,(12C2_SDA/UART5_TX)PC12*%
%TO.N,unconnected-(U6-(12C2_SDA{slash}UART5_TX)PC12-Pad58)*%
X6350000Y19050000D03*
%TO.P,U6,59,PC13*%
%TO.N,unconnected-(U6-PC13-Pad59)*%
X31750000Y19050000D03*
%TO.P,U6,60,PC14*%
%TO.N,unconnected-(U6-PC14-Pad60)*%
X34290000Y19050000D03*
%TO.P,U6,61,PC15*%
%TO.N,unconnected-(U6-PC15-Pad61)*%
X36830000Y19050000D03*
%TO.P,U6,62,GND*%
%TO.N,GND*%
X26670000Y19050000D03*
X11430000Y21590000D03*
X26670000Y21590000D03*
X29210000Y21590000D03*
X13970000Y80010000D03*
X26670000Y82550000D03*
X41910000Y82550000D03*
%TO.P,U6,63*%
%TO.N,N/C*%
X16510000Y19050000D03*
%TO.P,U6,64*%
X13970000Y21590000D03*
%TO.P,U6,65*%
X13970000Y19050000D03*
%TO.P,U6,66*%
X34290000Y21590000D03*
%TO.P,U6,67*%
X13970000Y82550000D03*
%TO.P,U6,68*%
X24130000Y82550000D03*
%TO.P,U6,69*%
X46990000Y82550000D03*
%TO.P,U6,70*%
X49530000Y82550000D03*
%TD*%
D10*
%TO.P,C2,1*%
%TO.N,VCC*%
X25440000Y41910000D03*
%TO.P,C2,2*%
%TO.N,GND1*%
X27940000Y41910000D03*
%TD*%
%TO.P,C3,1*%
%TO.N,VCC*%
X25400000Y49530000D03*
%TO.P,C3,2*%
%TO.N,GND1*%
X27900000Y49530000D03*
%TD*%
D17*
%TO.P,C1,1*%
%TO.N,VCC*%
X58420000Y59690000D03*
D10*
%TO.P,C1,2*%
%TO.N,GND1*%
X58420000Y57690000D03*
%TD*%
D12*
%TO.P,J2,1,Pin_1*%
%TO.N,GND1*%
X60960000Y6350000D03*
D13*
%TO.P,J2,2,Pin_2*%
%TO.N,VCC*%
X63500000Y6350000D03*
%TO.P,J2,3,Pin_3*%
%TO.N,PWM1*%
X66040000Y6350000D03*
%TD*%
D12*
%TO.P,J4,1,Pin_1*%
%TO.N,GND1*%
X35560000Y6350000D03*
D13*
%TO.P,J4,2,Pin_2*%
%TO.N,VCC*%
X38100000Y6350000D03*
%TO.P,J4,3,Pin_3*%
%TO.N,PWM3*%
X40640000Y6350000D03*
%TD*%
D10*
%TO.P,R5,1*%
%TO.N,VCC*%
X43180000Y10160000D03*
D11*
%TO.P,R5,2*%
%TO.N,PWM2*%
X53340000Y10160000D03*
%TD*%
D18*
%TO.P,J1,*%
%TO.N,*%
X61080000Y76600000D03*
X61080000Y63100000D03*
D19*
%TO.P,J1,1,Pin_1*%
%TO.N,GND1*%
X55080000Y73450000D03*
D20*
%TO.P,J1,2,Pin_2*%
%TO.N,VCC*%
X55080000Y66250000D03*
%TD*%
D10*
%TO.P,R12,1*%
%TO.N,VCC*%
X5080000Y10160000D03*
D11*
%TO.P,R12,2*%
%TO.N,PWM5*%
X15240000Y10160000D03*
%TD*%
D10*
%TO.P,R7,1*%
%TO.N,VCC*%
X30480000Y10160000D03*
D11*
%TO.P,R7,2*%
%TO.N,PWM3*%
X40640000Y10160000D03*
%TD*%
D10*
%TO.P,R3,1*%
%TO.N,B6*%
X8890000Y67310000D03*
D11*
%TO.P,R3,2*%
%TO.N,Net-(R3-Pad2)*%
X19050000Y67310000D03*
%TD*%
D21*
%TO.P,U3,1,1*%
%TO.N,Net-(R6-Pad2)*%
X20688300Y52070000D03*
%TO.P,U3,3,3*%
%TO.N,GND*%
X20688300Y54610000D03*
%TO.P,U3,4,4*%
%TO.N,GND1*%
X27571700Y54610000D03*
%TO.P,U3,5,5*%
%TO.N,PWM3*%
X27571700Y53340000D03*
%TO.P,U3,6,6*%
%TO.N,VCC*%
X27571700Y52070000D03*
%TD*%
%TO.P,U2,1,1*%
%TO.N,Net-(R4-Pad2)*%
X20688300Y59690000D03*
%TO.P,U2,3,3*%
%TO.N,GND*%
X20688300Y62230000D03*
%TO.P,U2,4,4*%
%TO.N,GND1*%
X27571700Y62230000D03*
%TO.P,U2,5,5*%
%TO.N,PWM2*%
X27571700Y60960000D03*
%TO.P,U2,6,6*%
%TO.N,VCC*%
X27571700Y59690000D03*
%TD*%
%TO.P,U4,1,1*%
%TO.N,Net-(R9-Pad2)*%
X20688300Y44450000D03*
%TO.P,U4,3,3*%
%TO.N,GND*%
X20688300Y46990000D03*
%TO.P,U4,4,4*%
%TO.N,GND1*%
X27571700Y46990000D03*
%TO.P,U4,5,5*%
%TO.N,PWM4*%
X27571700Y45720000D03*
%TO.P,U4,6,6*%
%TO.N,VCC*%
X27571700Y44450000D03*
%TD*%
%TO.P,U1,1,1*%
%TO.N,Net-(R3-Pad2)*%
X20688300Y67310000D03*
%TO.P,U1,3,3*%
%TO.N,GND*%
X20688300Y69850000D03*
%TO.P,U1,4,4*%
%TO.N,GND1*%
X27571700Y69850000D03*
%TO.P,U1,5,5*%
%TO.N,PWM1*%
X27571700Y68580000D03*
%TO.P,U1,6,6*%
%TO.N,VCC*%
X27571700Y67310000D03*
%TD*%
%TO.P,U5,1,1*%
%TO.N,Net-(R11-Pad2)*%
X20688300Y36830000D03*
%TO.P,U5,3,3*%
%TO.N,GND*%
X20688300Y39370000D03*
%TO.P,U5,4,4*%
%TO.N,GND1*%
X27571700Y39370000D03*
%TO.P,U5,5,5*%
%TO.N,PWM5*%
X27571700Y38100000D03*
%TO.P,U5,6,6*%
%TO.N,VCC*%
X27571700Y36830000D03*
%TD*%
D22*
%TO.N,GND1*%
X45720000Y6350000D03*
X36830000Y57150000D03*
X41910000Y40640000D03*
X34290000Y52070000D03*
X45720000Y1270000D03*
X41910000Y52070000D03*
X20320000Y6350000D03*
X52070000Y35560000D03*
X33020000Y6350000D03*
X33020000Y1270000D03*
X58420000Y1270000D03*
X41910000Y46990000D03*
X58420000Y6350000D03*
X31750000Y46990000D03*
X58420000Y35560000D03*
X20320000Y1270000D03*
X41910000Y57150000D03*
X29210000Y40640000D03*
%TO.N,+5V*%
X26670000Y34290000D03*
X58420000Y38100000D03*
%TO.N,B9*%
X3810000Y77470000D03*
X8890000Y77470000D03*
%TD*%
D23*
%TO.N,GND1*%
X27900000Y57150000D02*
X27900000Y54938300D01*
X27940000Y39738300D02*
X27571700Y39370000D01*
X27900000Y54938300D02*
X27571700Y54610000D01*
X27900000Y47318300D02*
X27571700Y46990000D01*
X27900000Y70178300D02*
X27571700Y69850000D01*
X27900000Y49530000D02*
X27900000Y47318300D01*
X27900000Y62558300D02*
X27571700Y62230000D01*
X27900000Y72390000D02*
X27900000Y70178300D01*
X27940000Y41910000D02*
X27940000Y39738300D01*
X27900000Y64770000D02*
X27900000Y62558300D01*
D24*
%TO.N,VCC*%
X51745000Y4150000D02*
X38100000Y4150000D01*
X25400000Y4150000D02*
X13630000Y4150000D01*
X35850000Y10160000D02*
X38100000Y7910000D01*
X50815000Y6350000D02*
X50815000Y5080000D01*
D25*
X63500000Y6350000D02*
X63500000Y4150000D01*
D24*
X12700000Y6350000D02*
X12700000Y5080000D01*
D23*
X25400000Y67877688D02*
X25967688Y67310000D01*
D24*
X5080000Y10160000D02*
X10450000Y10160000D01*
X25415000Y7910000D02*
X25415000Y6350000D01*
X30480000Y10160000D02*
X35850000Y10160000D01*
D23*
X25400000Y52637688D02*
X25967688Y52070000D01*
D24*
X38100000Y7910000D02*
X38100000Y6350000D01*
X43180000Y10160000D02*
X48565000Y10160000D01*
X55080000Y63030000D02*
X58420000Y59690000D01*
D23*
X25440000Y44977688D02*
X25440000Y41910000D01*
X25967688Y52070000D02*
X27571700Y52070000D01*
X25400000Y52637688D02*
X25400000Y49530000D01*
D24*
X66951270Y4150000D02*
X63500000Y4150000D01*
X25415000Y6350000D02*
X25415000Y4165000D01*
D23*
X25400000Y57150000D02*
X25400000Y52637688D01*
X25400000Y72390000D02*
X25400000Y67877688D01*
X25967688Y67310000D02*
X27571700Y67310000D01*
D24*
X12700000Y7910000D02*
X12700000Y6350000D01*
X38100000Y6350000D02*
X38100000Y4150000D01*
X63500000Y4150000D02*
X51745000Y4150000D01*
X51745000Y4150000D02*
X50815000Y5080000D01*
D23*
X25967688Y44450000D02*
X27571700Y44450000D01*
D24*
X55080000Y34495488D02*
X62580000Y26995488D01*
D23*
X25400000Y64770000D02*
X25400000Y60257688D01*
D24*
X55080000Y66250000D02*
X55080000Y34495488D01*
X17780000Y10160000D02*
X23165000Y10160000D01*
D23*
X25400000Y45017688D02*
X25440000Y44977688D01*
X25967688Y36830000D02*
X27571700Y36830000D01*
X25400000Y45017688D02*
X25967688Y44450000D01*
X25400000Y60257688D02*
X25400000Y57150000D01*
X25440000Y41910000D02*
X25440000Y37357688D01*
D24*
X23165000Y10160000D02*
X25415000Y7910000D01*
D25*
X63500000Y7710000D02*
X63500000Y6350000D01*
D23*
X25440000Y37357688D02*
X25967688Y36830000D01*
X25400000Y67877688D02*
X25400000Y64770000D01*
D24*
X50815000Y7910000D02*
X50815000Y6350000D01*
X62580000Y26995488D02*
X62580000Y16860000D01*
X13630000Y4150000D02*
X12700000Y5080000D01*
X25415000Y4165000D02*
X25400000Y4150000D01*
D23*
X25400000Y60257688D02*
X25967688Y59690000D01*
D24*
X68240000Y11200000D02*
X68240000Y5438730D01*
X55080000Y66250000D02*
X55080000Y63030000D01*
X38100000Y4150000D02*
X25400000Y4150000D01*
X10450000Y10160000D02*
X12700000Y7910000D01*
D23*
X25400000Y49530000D02*
X25400000Y45017688D01*
D24*
X48565000Y10160000D02*
X50815000Y7910000D01*
D25*
X61050000Y10160000D02*
X63500000Y7710000D01*
X55880000Y10160000D02*
X61050000Y10160000D01*
D23*
X25967688Y59690000D02*
X27571700Y59690000D01*
D24*
X62580000Y16860000D02*
X68240000Y11200000D01*
X68240000Y5438730D02*
X66951270Y4150000D01*
X58420000Y59690000D02*
X63500000Y59690000D01*
%TO.N,Net-(D1-A)*%
X68580000Y49530000D02*
X68580000Y44591421D01*
X68580000Y44591421D02*
X68509289Y44520710D01*
%TO.N,GND*%
X20688300Y46990000D02*
X22888300Y46990000D01*
X22888300Y46990000D02*
X22888300Y38128300D01*
X20688300Y39370000D02*
X21259570Y39370000D01*
X22888300Y54610000D02*
X22888300Y46990000D01*
X69009849Y41910000D02*
X70890000Y43790151D01*
X68580000Y41910000D02*
X69009849Y41910000D01*
X22888300Y38128300D02*
X22694785Y37934785D01*
X22888300Y62230000D02*
X22888300Y54610000D01*
X20688300Y54610000D02*
X22888300Y54610000D01*
X70890000Y75160000D02*
X61450000Y84600000D01*
X43600862Y84600000D02*
X41910000Y82909138D01*
X21259570Y69850000D02*
X22888300Y68221270D01*
X61450000Y84600000D02*
X43600862Y84600000D01*
X41910000Y82909138D02*
X41910000Y82550000D01*
X20688300Y69850000D02*
X21259570Y69850000D01*
X21259570Y39370000D02*
X22694785Y37934785D01*
X20688300Y62230000D02*
X22888300Y62230000D01*
X70890000Y43790151D02*
X70890000Y75160000D01*
X22888300Y68221270D02*
X22888300Y62230000D01*
%TO.N,Net-(D2-A)*%
X63500000Y49530000D02*
X63500000Y44450000D01*
%TO.N,PWM1*%
X39370000Y58420000D02*
X29210000Y68580000D01*
D23*
X27571700Y68580000D02*
X29210000Y68580000D01*
D24*
X39370000Y32440000D02*
X39370000Y58420000D01*
X66040000Y10160000D02*
X66040000Y6350000D01*
X54024218Y32440000D02*
X39370000Y32440000D01*
X66040000Y10160000D02*
X60380000Y15820000D01*
X60380000Y26084218D02*
X54024218Y32440000D01*
X60380000Y15820000D02*
X60380000Y26084218D01*
%TO.N,PWM2*%
X36830000Y30240000D02*
X36830000Y53340000D01*
X53340000Y10627052D02*
X58180000Y15467052D01*
X53340000Y10160000D02*
X53340000Y6365000D01*
D23*
X27571700Y60960000D02*
X29210000Y60960000D01*
D24*
X53340000Y6365000D02*
X53355000Y6350000D01*
X53340000Y10160000D02*
X53340000Y10627052D01*
X58180000Y15467052D02*
X58180000Y25172948D01*
X58180000Y25172948D02*
X53112948Y30240000D01*
X36830000Y53340000D02*
X29210000Y60960000D01*
X53112948Y30240000D02*
X36830000Y30240000D01*
D23*
%TO.N,PWM3*%
X27571700Y53340000D02*
X29210000Y53340000D01*
D24*
X40640000Y10160000D02*
X40640000Y11291370D01*
X41948630Y12600000D02*
X52201678Y12600000D01*
X40640000Y11291370D02*
X41948630Y12600000D01*
X52201678Y12600000D02*
X55980000Y16378322D01*
X55980000Y24261678D02*
X52201678Y28040000D01*
X34290000Y48260000D02*
X29210000Y53340000D01*
X40640000Y10160000D02*
X40640000Y6350000D01*
X55980000Y16378322D02*
X55980000Y24261678D01*
X34290000Y28040000D02*
X34290000Y48260000D01*
X52201678Y28040000D02*
X34290000Y28040000D01*
%TO.N,PWM4*%
X27940000Y6365000D02*
X27955000Y6350000D01*
X31750000Y43180000D02*
X29210000Y45720000D01*
X53780000Y23350408D02*
X51290408Y25840000D01*
X31750000Y25840000D02*
X31750000Y43180000D01*
X51290408Y14800000D02*
X53780000Y17289592D01*
X27940000Y10160000D02*
X27940000Y6365000D01*
X27940000Y10160000D02*
X27940000Y11198322D01*
X53780000Y17289592D02*
X53780000Y23350408D01*
X51290408Y25840000D02*
X31750000Y25840000D01*
D23*
X27571700Y45720000D02*
X29210000Y45720000D01*
D24*
X31541678Y14800000D02*
X51290408Y14800000D01*
X27940000Y11198322D02*
X31541678Y14800000D01*
%TO.N,PWM5*%
X18610000Y14800000D02*
X28430408Y14800000D01*
X29375712Y37934288D02*
X29210000Y38100000D01*
X30630408Y17000000D02*
X50379138Y17000000D01*
X29210000Y23640000D02*
X29375712Y23805712D01*
D23*
X27571700Y38100000D02*
X29210000Y38100000D01*
D24*
X29375712Y23805712D02*
X29375712Y37934288D01*
D23*
X29210000Y38100000D02*
X27940000Y38100000D01*
D24*
X51580000Y18200862D02*
X51580000Y22439138D01*
X15240000Y10160000D02*
X15240000Y6350000D01*
X15240000Y10160000D02*
X15240000Y11430000D01*
X28430408Y14800000D02*
X30630408Y17000000D01*
X50379138Y23640000D02*
X29210000Y23640000D01*
X51580000Y22439138D02*
X50379138Y23640000D01*
X50379138Y17000000D02*
X51580000Y18200862D01*
X15240000Y11430000D02*
X18610000Y14800000D01*
%TO.N,+5V*%
X24130000Y21590000D02*
X24130000Y31750000D01*
X58420000Y49530000D02*
X58420000Y38100000D01*
X68580000Y59690000D02*
X58420000Y49530000D01*
X24130000Y31750000D02*
X26670000Y34290000D01*
%TO.N,Net-(R3-Pad2)*%
X20688300Y67310000D02*
X19050000Y67310000D01*
%TO.N,B6*%
X8890000Y67310000D02*
X10160000Y68580000D01*
X24130000Y78807919D02*
X24130000Y80010000D01*
X13902081Y68580000D02*
X24130000Y78807919D01*
X10160000Y68580000D02*
X13902081Y68580000D01*
%TO.N,Net-(R4-Pad2)*%
X20688300Y59690000D02*
X19050000Y59690000D01*
%TO.N,B7*%
X29210000Y18690862D02*
X29210000Y19050000D01*
X2960862Y17000000D02*
X27519138Y17000000D01*
X8890000Y59690000D02*
X11430000Y57150000D01*
X27519138Y17000000D02*
X29210000Y18690862D01*
X1760000Y25890000D02*
X1760000Y18200862D01*
X1760000Y18200862D02*
X2960862Y17000000D01*
X11430000Y35560000D02*
X1760000Y25890000D01*
X11430000Y57150000D02*
X11430000Y35560000D01*
%TO.N,B8*%
X6350000Y54610000D02*
X6350000Y80010000D01*
X8890000Y52070000D02*
X6350000Y54610000D01*
%TO.N,Net-(R9-Pad2)*%
X20688300Y44450000D02*
X19050000Y44450000D01*
%TO.N,Net-(R6-Pad2)*%
X20688300Y52070000D02*
X19050000Y52070000D01*
%TO.N,B9*%
X8890000Y80010000D02*
X8890000Y77470000D01*
X3810000Y49530000D02*
X3810000Y77470000D01*
X8890000Y44450000D02*
X3810000Y49530000D01*
%TO.N,C6*%
X5242081Y84860000D02*
X6350000Y83752081D01*
X8890000Y36830000D02*
X1610000Y44110000D01*
X1610000Y83249138D02*
X3220862Y84860000D01*
X6350000Y83752081D02*
X6350000Y82550000D01*
X1610000Y44110000D02*
X1610000Y83249138D01*
X3220862Y84860000D02*
X5242081Y84860000D01*
%TO.N,Net-(R11-Pad2)*%
X20688300Y36830000D02*
X19050000Y36830000D01*
%TD*%
%TA.AperFunction,Conductor*%
%TO.N,GND1*%
G36*
X60844150Y83079815D02*
G01*
X60864792Y83063181D01*
X69353181Y74574792D01*
X69386666Y74513469D01*
X69389500Y74487111D01*
X69389500Y61163940D01*
X69369815Y61096901D01*
X69317011Y61051146D01*
X69247853Y61041202D01*
X69209206Y61053455D01*
X69155997Y61080566D01*
X69155994Y61080567D01*
X69155992Y61080568D01*
X68931369Y61153553D01*
X68931367Y61153554D01*
X68931365Y61153554D01*
X68698097Y61190500D01*
X68698092Y61190500D01*
X68461908Y61190500D01*
X68461903Y61190500D01*
X68228631Y61153554D01*
X68004003Y61080567D01*
X67793563Y60973341D01*
X67602496Y60834524D01*
X67602491Y60834520D01*
X57275485Y50507513D01*
X57275484Y50507512D01*
X57136657Y50316435D01*
X57029433Y50105997D01*
X56956446Y49881369D01*
X56919500Y49648098D01*
X56919500Y37981903D01*
X56956446Y37748632D01*
X57029433Y37524004D01*
X57117549Y37351069D01*
X57136657Y37313567D01*
X57275483Y37122490D01*
X57442490Y36955483D01*
X57633567Y36816657D01*
X57732991Y36765998D01*
X57844003Y36709434D01*
X57844005Y36709434D01*
X57844008Y36709432D01*
X57964412Y36670311D01*
X58068631Y36636447D01*
X58301903Y36599500D01*
X58301908Y36599500D01*
X58538097Y36599500D01*
X58771368Y36636447D01*
X58995992Y36709432D01*
X59206433Y36816657D01*
X59397510Y36955483D01*
X59564517Y37122490D01*
X59703343Y37313567D01*
X59810568Y37524008D01*
X59883553Y37748632D01*
X59896520Y37830500D01*
X59920500Y37981903D01*
X59920500Y44331903D01*
X61999500Y44331903D01*
X62036446Y44098632D01*
X62109433Y43874004D01*
X62202954Y43690461D01*
X62216657Y43663567D01*
X62355483Y43472490D01*
X62522490Y43305483D01*
X62713567Y43166657D01*
X62800499Y43122363D01*
X62924003Y43059434D01*
X62924005Y43059434D01*
X62924008Y43059432D01*
X63044412Y43020311D01*
X63148631Y42986447D01*
X63381903Y42949500D01*
X63381908Y42949500D01*
X63618097Y42949500D01*
X63851368Y42986447D01*
X64075992Y43059432D01*
X64286433Y43166657D01*
X64477510Y43305483D01*
X64644517Y43472490D01*
X64783343Y43663567D01*
X64890568Y43874008D01*
X64963553Y44098632D01*
X64969372Y44135372D01*
X65000500Y44331903D01*
X65000500Y49648098D01*
X64963553Y49881369D01*
X64890566Y50105997D01*
X64783342Y50316434D01*
X64644517Y50507510D01*
X64477510Y50674517D01*
X64286433Y50813343D01*
X64075996Y50920567D01*
X63851368Y50993554D01*
X63618097Y51030500D01*
X63618092Y51030500D01*
X63381908Y51030500D01*
X63381903Y51030500D01*
X63148631Y50993554D01*
X62924003Y50920567D01*
X62713566Y50813343D01*
X62615872Y50742363D01*
X62522490Y50674517D01*
X62522488Y50674515D01*
X62522487Y50674515D01*
X62355485Y50507513D01*
X62355485Y50507512D01*
X62355483Y50507510D01*
X62295862Y50425450D01*
X62216657Y50316434D01*
X62109433Y50105997D01*
X62036446Y49881369D01*
X61999500Y49648098D01*
X61999500Y44331903D01*
X59920500Y44331903D01*
X59920500Y48857111D01*
X59940185Y48924150D01*
X59956819Y48944792D01*
X69177819Y58165792D01*
X69239142Y58199277D01*
X69308834Y58194293D01*
X69364767Y58152421D01*
X69389184Y58086957D01*
X69389500Y58078111D01*
X69389500Y51003940D01*
X69369815Y50936901D01*
X69317011Y50891146D01*
X69247853Y50881202D01*
X69209206Y50893455D01*
X69155999Y50920566D01*
X68931368Y50993554D01*
X68698097Y51030500D01*
X68698092Y51030500D01*
X68461908Y51030500D01*
X68461903Y51030500D01*
X68228631Y50993554D01*
X68004003Y50920567D01*
X67793566Y50813343D01*
X67695872Y50742363D01*
X67602490Y50674517D01*
X67602488Y50674515D01*
X67602487Y50674515D01*
X67435485Y50507513D01*
X67435485Y50507512D01*
X67435483Y50507510D01*
X67375862Y50425450D01*
X67296657Y50316434D01*
X67189433Y50105997D01*
X67116446Y49881369D01*
X67079500Y49648098D01*
X67079500Y44995633D01*
X67073431Y44957314D01*
X67045735Y44872079D01*
X67008789Y44638808D01*
X67008789Y44402613D01*
X67045735Y44169342D01*
X67118722Y43944714D01*
X67206197Y43773035D01*
X67225946Y43734276D01*
X67270568Y43672859D01*
X67364773Y43543199D01*
X67460580Y43447392D01*
X67494065Y43386069D01*
X67489081Y43316377D01*
X67447209Y43260444D01*
X67442538Y43257442D01*
X67322455Y43167548D01*
X67322452Y43167545D01*
X67236206Y43052336D01*
X67236202Y43052329D01*
X67185908Y42917483D01*
X67179501Y42857884D01*
X67179500Y42857865D01*
X67179500Y42475066D01*
X67173431Y42436748D01*
X67116447Y42261370D01*
X67079500Y42028098D01*
X67079500Y41791903D01*
X67116446Y41558632D01*
X67173431Y41383253D01*
X67179500Y41344935D01*
X67179500Y40962131D01*
X67179501Y40962124D01*
X67185908Y40902517D01*
X67236202Y40767672D01*
X67236206Y40767665D01*
X67322452Y40652456D01*
X67322455Y40652453D01*
X67437664Y40566207D01*
X67437671Y40566203D01*
X67482618Y40549439D01*
X67572517Y40515909D01*
X67632127Y40509500D01*
X68014933Y40509501D01*
X68053251Y40503432D01*
X68104661Y40486728D01*
X68228632Y40446447D01*
X68316110Y40432592D01*
X68461903Y40409500D01*
X68461908Y40409500D01*
X69127946Y40409500D01*
X69233975Y40426295D01*
X69361217Y40446447D01*
X69556578Y40509925D01*
X69581638Y40515281D01*
X69587483Y40515909D01*
X69722331Y40566204D01*
X69837546Y40652454D01*
X69837551Y40652462D01*
X69843819Y40658728D01*
X69844637Y40657910D01*
X69859567Y40672638D01*
X69987359Y40765483D01*
X71677819Y42455943D01*
X71739142Y42489428D01*
X71808834Y42484444D01*
X71864767Y42442572D01*
X71889184Y42377108D01*
X71889500Y42368262D01*
X71889500Y624500D01*
X71869815Y557461D01*
X71817011Y511706D01*
X71765500Y500500D01*
X624500Y500500D01*
X557461Y520185D01*
X511706Y572989D01*
X500500Y624500D01*
X500500Y17038973D01*
X520185Y17106012D01*
X572989Y17151767D01*
X642147Y17161711D01*
X705703Y17132686D01*
X712181Y17126654D01*
X1983352Y15855483D01*
X2174428Y15716657D01*
X2273854Y15665997D01*
X2384865Y15609434D01*
X2384867Y15609434D01*
X2384870Y15609432D01*
X2505274Y15570311D01*
X2609493Y15536447D01*
X2842765Y15499500D01*
X2842770Y15499500D01*
X16888110Y15499500D01*
X16955149Y15479815D01*
X17000904Y15427011D01*
X17010848Y15357853D01*
X16981823Y15294297D01*
X16975791Y15287819D01*
X14095484Y12407512D01*
X13956655Y12216433D01*
X13858613Y12024011D01*
X13858613Y12024010D01*
X13849433Y12005994D01*
X13776446Y11781369D01*
X13739500Y11548098D01*
X13739500Y9291890D01*
X13719815Y9224851D01*
X13667011Y9179096D01*
X13597853Y9169152D01*
X13534297Y9198177D01*
X13527819Y9204209D01*
X11427512Y11304515D01*
X11427511Y11304516D01*
X11408825Y11318092D01*
X11236434Y11443343D01*
X11207870Y11457897D01*
X11025996Y11550567D01*
X10801368Y11623554D01*
X10568097Y11660500D01*
X10568092Y11660500D01*
X4961908Y11660500D01*
X4961903Y11660500D01*
X4728631Y11623554D01*
X4504003Y11550567D01*
X4293566Y11443343D01*
X4184550Y11364138D01*
X4102490Y11304517D01*
X4102488Y11304515D01*
X4102487Y11304515D01*
X3935485Y11137513D01*
X3935485Y11137512D01*
X3935483Y11137510D01*
X3888152Y11072365D01*
X3796657Y10946434D01*
X3689433Y10735997D01*
X3616446Y10511369D01*
X3579500Y10278098D01*
X3579500Y10041903D01*
X3616446Y9808632D01*
X3689433Y9584004D01*
X3725373Y9513469D01*
X3796657Y9373567D01*
X3935483Y9182490D01*
X4102490Y9015483D01*
X4293567Y8876657D01*
X4389592Y8827730D01*
X4504003Y8769434D01*
X4504005Y8769434D01*
X4504008Y8769432D01*
X4624412Y8730311D01*
X4728631Y8696447D01*
X4961903Y8659500D01*
X4961908Y8659500D01*
X9777111Y8659500D01*
X9844150Y8639815D01*
X9864792Y8623181D01*
X11163181Y7324792D01*
X11196666Y7263469D01*
X11199500Y7237111D01*
X11199500Y4961903D01*
X11236446Y4728632D01*
X11309433Y4504004D01*
X11416657Y4293566D01*
X11555484Y4102489D01*
X11555485Y4102488D01*
X12652491Y3005481D01*
X12652496Y3005477D01*
X12819155Y2884394D01*
X12843567Y2866657D01*
X12977659Y2798334D01*
X13054003Y2759434D01*
X13054005Y2759434D01*
X13054008Y2759432D01*
X13174412Y2720311D01*
X13278631Y2686447D01*
X13511903Y2649500D01*
X13511908Y2649500D01*
X67069367Y2649500D01*
X67302638Y2686447D01*
X67527262Y2759432D01*
X67737704Y2866657D01*
X67928780Y3005483D01*
X69384517Y4461220D01*
X69523343Y4652296D01*
X69630568Y4862737D01*
X69666860Y4974432D01*
X69703553Y5087362D01*
X69724171Y5217542D01*
X69740500Y5320633D01*
X69740500Y11318098D01*
X69703553Y11551369D01*
X69654562Y11702147D01*
X69630568Y11775992D01*
X69630566Y11775995D01*
X69630566Y11775997D01*
X69524197Y11984756D01*
X69523343Y11986433D01*
X69456958Y12077804D01*
X69438848Y12102731D01*
X69384521Y12177507D01*
X64116819Y17445209D01*
X64083334Y17506532D01*
X64080500Y17532890D01*
X64080500Y27113586D01*
X64043553Y27346857D01*
X63970566Y27571485D01*
X63931666Y27647829D01*
X63863343Y27781921D01*
X63845606Y27806333D01*
X63724523Y27972992D01*
X63724519Y27972997D01*
X56616819Y35080697D01*
X56583334Y35142020D01*
X56580500Y35168378D01*
X56580500Y59108111D01*
X56600185Y59175150D01*
X56652989Y59220905D01*
X56722147Y59230849D01*
X56785703Y59201824D01*
X56792181Y59195792D01*
X57085395Y58902578D01*
X57118880Y58841255D01*
X57121004Y58828149D01*
X57125908Y58782517D01*
X57176202Y58647672D01*
X57176206Y58647665D01*
X57262452Y58532456D01*
X57262455Y58532453D01*
X57377664Y58446207D01*
X57377671Y58446203D01*
X57512516Y58395909D01*
X57538419Y58393125D01*
X57572127Y58389500D01*
X57637468Y58389501D01*
X57693759Y58375987D01*
X57793926Y58324950D01*
X57844003Y58299434D01*
X57844005Y58299434D01*
X57844008Y58299432D01*
X57964412Y58260311D01*
X58068631Y58226447D01*
X58301903Y58189500D01*
X58301908Y58189500D01*
X63618097Y58189500D01*
X63851368Y58226447D01*
X64075992Y58299432D01*
X64286433Y58406657D01*
X64477510Y58545483D01*
X64644517Y58712490D01*
X64783343Y58903567D01*
X64890568Y59114008D01*
X64963553Y59338632D01*
X64974456Y59407473D01*
X65000500Y59571903D01*
X65000500Y59808098D01*
X64963553Y60041369D01*
X64890566Y60265997D01*
X64783342Y60476434D01*
X64644517Y60667510D01*
X64477510Y60834517D01*
X64286433Y60973343D01*
X64283226Y60974977D01*
X64075996Y61080567D01*
X63851368Y61153554D01*
X63618097Y61190500D01*
X63618092Y61190500D01*
X59092889Y61190500D01*
X59025850Y61210185D01*
X59005208Y61226819D01*
X57629897Y62602130D01*
X59579500Y62602130D01*
X59579501Y62602124D01*
X59585908Y62542517D01*
X59636202Y62407672D01*
X59636206Y62407665D01*
X59722452Y62292456D01*
X59722455Y62292453D01*
X59837664Y62206207D01*
X59837671Y62206203D01*
X59972517Y62155909D01*
X59972516Y62155909D01*
X59979444Y62155165D01*
X60032127Y62149500D01*
X62127872Y62149501D01*
X62187483Y62155909D01*
X62322331Y62206204D01*
X62437546Y62292454D01*
X62523796Y62407669D01*
X62574091Y62542517D01*
X62580500Y62602127D01*
X62580499Y63597872D01*
X62574091Y63657483D01*
X62560637Y63693554D01*
X62523797Y63792329D01*
X62523793Y63792336D01*
X62437547Y63907545D01*
X62437544Y63907548D01*
X62322335Y63993794D01*
X62322328Y63993798D01*
X62187482Y64044092D01*
X62187483Y64044092D01*
X62127883Y64050499D01*
X62127881Y64050500D01*
X62127873Y64050500D01*
X62127864Y64050500D01*
X60032129Y64050500D01*
X60032123Y64050499D01*
X59972516Y64044092D01*
X59837671Y63993798D01*
X59837664Y63993794D01*
X59722455Y63907548D01*
X59722452Y63907545D01*
X59636206Y63792336D01*
X59636202Y63792329D01*
X59585908Y63657483D01*
X59579501Y63597884D01*
X59579501Y63597877D01*
X59579500Y63597865D01*
X59579500Y62602130D01*
X57629897Y62602130D01*
X56616819Y63615208D01*
X56583334Y63676531D01*
X56580500Y63702889D01*
X56580500Y64124405D01*
X56600185Y64191444D01*
X56631616Y64224724D01*
X56708958Y64280916D01*
X56708964Y64280920D01*
X56942911Y64500610D01*
X57147478Y64747890D01*
X57319439Y65018858D01*
X57456084Y65309242D01*
X57555256Y65614462D01*
X57615392Y65929706D01*
X57615393Y65929717D01*
X57635543Y66249995D01*
X57635543Y66250006D01*
X57615393Y66570284D01*
X57615392Y66570291D01*
X57615392Y66570294D01*
X57555256Y66885538D01*
X57456084Y67190758D01*
X57455543Y67191908D01*
X57319441Y67481139D01*
X57319437Y67481145D01*
X57147479Y67752109D01*
X57147477Y67752112D01*
X56942912Y67999389D01*
X56708965Y68219079D01*
X56708955Y68219087D01*
X56449339Y68407709D01*
X56449321Y68407720D01*
X56168096Y68562325D01*
X56168093Y68562326D01*
X55869703Y68680467D01*
X55869706Y68680467D01*
X55558864Y68760277D01*
X55558851Y68760279D01*
X55240475Y68800500D01*
X55240464Y68800500D01*
X54919536Y68800500D01*
X54919524Y68800500D01*
X54601148Y68760279D01*
X54601135Y68760277D01*
X54290294Y68680467D01*
X53991906Y68562326D01*
X53991903Y68562325D01*
X53710678Y68407720D01*
X53710660Y68407709D01*
X53451044Y68219087D01*
X53451034Y68219079D01*
X53217087Y67999389D01*
X53012522Y67752112D01*
X53012520Y67752109D01*
X52840562Y67481145D01*
X52840558Y67481139D01*
X52703918Y67190765D01*
X52703916Y67190760D01*
X52604745Y66885543D01*
X52544607Y66570291D01*
X52544606Y66570284D01*
X52524457Y66250006D01*
X52524457Y66249995D01*
X52544606Y65929717D01*
X52544607Y65929710D01*
X52571470Y65788891D01*
X52598424Y65647590D01*
X52604745Y65614458D01*
X52703916Y65309241D01*
X52703918Y65309236D01*
X52840558Y65018862D01*
X52840562Y65018856D01*
X53012520Y64747892D01*
X53012522Y64747889D01*
X53181761Y64543314D01*
X53217089Y64500610D01*
X53405689Y64323504D01*
X53451034Y64280922D01*
X53451041Y64280916D01*
X53528384Y64224724D01*
X53571051Y64169394D01*
X53579500Y64124405D01*
X53579500Y34377391D01*
X53616446Y34144122D01*
X53616447Y34144120D01*
X53629867Y34102818D01*
X53631863Y34032978D01*
X53595783Y33973145D01*
X53533082Y33942316D01*
X53511936Y33940500D01*
X40994500Y33940500D01*
X40927461Y33960185D01*
X40881706Y34012989D01*
X40870500Y34064500D01*
X40870500Y58538098D01*
X40833553Y58771369D01*
X40781860Y58930461D01*
X40760568Y58995992D01*
X40760566Y58995995D01*
X40760566Y58995997D01*
X40669282Y59175150D01*
X40653343Y59206433D01*
X40616467Y59257188D01*
X40616467Y59257189D01*
X40616465Y59257190D01*
X40549512Y59349345D01*
X40514521Y59397507D01*
X40514519Y59397509D01*
X30187512Y69724515D01*
X30187511Y69724516D01*
X29996434Y69863343D01*
X29785996Y69970567D01*
X29561368Y70043554D01*
X29328097Y70080500D01*
X29328092Y70080500D01*
X29091908Y70080500D01*
X29091903Y70080500D01*
X28858631Y70043554D01*
X28634003Y69970567D01*
X28423565Y69863343D01*
X28232488Y69724516D01*
X28232487Y69724515D01*
X28124792Y69616819D01*
X28063469Y69583334D01*
X28037111Y69580500D01*
X27473157Y69580500D01*
X27279870Y69542053D01*
X27279860Y69542050D01*
X27097792Y69466636D01*
X27097779Y69466629D01*
X26933919Y69357140D01*
X26933913Y69357135D01*
X26916310Y69339533D01*
X26866755Y69311892D01*
X26867471Y69309973D01*
X26725361Y69256971D01*
X26725352Y69256966D01*
X26603043Y69165404D01*
X26601787Y69167082D01*
X26550858Y69139272D01*
X26481166Y69144256D01*
X26425233Y69186128D01*
X26400816Y69251592D01*
X26400500Y69260438D01*
X26400500Y71512412D01*
X26420185Y71579451D01*
X26422925Y71583535D01*
X26530568Y71737266D01*
X26626739Y71943504D01*
X26685635Y72163308D01*
X26705468Y72390000D01*
X26685635Y72616692D01*
X26626739Y72836496D01*
X26530568Y73042734D01*
X26400047Y73229139D01*
X26400045Y73229142D01*
X26239141Y73390046D01*
X26052734Y73520568D01*
X26052732Y73520569D01*
X25846497Y73616739D01*
X25846488Y73616742D01*
X25626697Y73675634D01*
X25626693Y73675635D01*
X25626692Y73675635D01*
X25626691Y73675636D01*
X25626686Y73675636D01*
X25400002Y73695468D01*
X25399998Y73695468D01*
X25173313Y73675636D01*
X25173302Y73675634D01*
X24953511Y73616742D01*
X24953502Y73616739D01*
X24747267Y73520569D01*
X24747265Y73520568D01*
X24560858Y73390046D01*
X24399954Y73229142D01*
X24269432Y73042735D01*
X24269431Y73042733D01*
X24173261Y72836498D01*
X24173258Y72836489D01*
X24114366Y72616698D01*
X24114364Y72616687D01*
X24094532Y72390002D01*
X24094532Y72389999D01*
X24114364Y72163314D01*
X24114366Y72163303D01*
X24173258Y71943512D01*
X24173261Y71943503D01*
X24269431Y71737268D01*
X24269432Y71737266D01*
X24377075Y71583535D01*
X24399402Y71517329D01*
X24399500Y71512412D01*
X24399500Y69075547D01*
X24379815Y69008508D01*
X24327011Y68962753D01*
X24257853Y68952809D01*
X24194297Y68981834D01*
X24175245Y69004299D01*
X24174507Y69003762D01*
X24042009Y69186128D01*
X24032817Y69198780D01*
X22237080Y70994517D01*
X22046004Y71133343D01*
X21835566Y71240567D01*
X21610938Y71313554D01*
X21377667Y71350500D01*
X21377662Y71350500D01*
X20570208Y71350500D01*
X20570203Y71350500D01*
X20336931Y71313554D01*
X20112303Y71240567D01*
X19901866Y71133343D01*
X19792850Y71054138D01*
X19710790Y70994517D01*
X19710788Y70994515D01*
X19710787Y70994515D01*
X19543785Y70827513D01*
X19543785Y70827512D01*
X19543783Y70827510D01*
X19484162Y70745450D01*
X19404957Y70636434D01*
X19297733Y70425997D01*
X19224746Y70201369D01*
X19187800Y69968098D01*
X19187800Y69731903D01*
X19224746Y69498632D01*
X19297733Y69274004D01*
X19404959Y69063564D01*
X19445775Y69007385D01*
X19469255Y68941579D01*
X19453430Y68873525D01*
X19403324Y68824830D01*
X19345457Y68810500D01*
X18931903Y68810500D01*
X18698631Y68773554D01*
X18474003Y68700567D01*
X18263566Y68593343D01*
X18220873Y68562324D01*
X18072490Y68454517D01*
X18072488Y68454515D01*
X18072487Y68454515D01*
X17905485Y68287513D01*
X17905485Y68287512D01*
X17905483Y68287510D01*
X17855771Y68219087D01*
X17766657Y68096434D01*
X17659433Y67885997D01*
X17586446Y67661369D01*
X17549500Y67428098D01*
X17549500Y67191903D01*
X17586446Y66958632D01*
X17659433Y66734004D01*
X17752954Y66550461D01*
X17766657Y66523567D01*
X17905483Y66332490D01*
X18072490Y66165483D01*
X18263567Y66026657D01*
X18350499Y65982363D01*
X18474003Y65919434D01*
X18474005Y65919434D01*
X18474008Y65919432D01*
X18594412Y65880311D01*
X18698631Y65846447D01*
X18931903Y65809500D01*
X18931908Y65809500D01*
X20806397Y65809500D01*
X21039668Y65846447D01*
X21225482Y65906823D01*
X21295322Y65908817D01*
X21355155Y65872737D01*
X21385984Y65810036D01*
X21387800Y65788891D01*
X21387800Y63854500D01*
X21368115Y63787461D01*
X21315311Y63741706D01*
X21263800Y63730500D01*
X20570203Y63730500D01*
X20336931Y63693554D01*
X20112303Y63620567D01*
X19901866Y63513343D01*
X19792850Y63434138D01*
X19710790Y63374517D01*
X19710788Y63374515D01*
X19710787Y63374515D01*
X19543785Y63207513D01*
X19543785Y63207512D01*
X19543783Y63207510D01*
X19484162Y63125450D01*
X19404957Y63016434D01*
X19297733Y62805997D01*
X19224746Y62581369D01*
X19187800Y62348098D01*
X19187800Y62111903D01*
X19224746Y61878632D01*
X19297733Y61654004D01*
X19404959Y61443564D01*
X19445775Y61387385D01*
X19469255Y61321579D01*
X19453430Y61253525D01*
X19403324Y61204830D01*
X19345457Y61190500D01*
X18931903Y61190500D01*
X18698631Y61153554D01*
X18474003Y61080567D01*
X18263566Y60973343D01*
X18175070Y60909046D01*
X18072490Y60834517D01*
X18072488Y60834515D01*
X18072487Y60834515D01*
X17905485Y60667513D01*
X17905485Y60667512D01*
X17905483Y60667510D01*
X17845862Y60585450D01*
X17766657Y60476434D01*
X17659433Y60265997D01*
X17586446Y60041369D01*
X17549500Y59808098D01*
X17549500Y59571903D01*
X17586446Y59338632D01*
X17659433Y59114004D01*
X17752954Y58930461D01*
X17766657Y58903567D01*
X17905483Y58712490D01*
X18072490Y58545483D01*
X18263567Y58406657D01*
X18325403Y58375150D01*
X18474003Y58299434D01*
X18474005Y58299434D01*
X18474008Y58299432D01*
X18594412Y58260311D01*
X18698631Y58226447D01*
X18931903Y58189500D01*
X18931908Y58189500D01*
X20806397Y58189500D01*
X21039668Y58226447D01*
X21225482Y58286823D01*
X21295322Y58288817D01*
X21355155Y58252737D01*
X21385984Y58190036D01*
X21387800Y58168891D01*
X21387800Y56234500D01*
X21368115Y56167461D01*
X21315311Y56121706D01*
X21263800Y56110500D01*
X20570203Y56110500D01*
X20336931Y56073554D01*
X20112303Y56000567D01*
X19901866Y55893343D01*
X19792850Y55814138D01*
X19710790Y55754517D01*
X19710788Y55754515D01*
X19710787Y55754515D01*
X19543785Y55587513D01*
X19543785Y55587512D01*
X19543783Y55587510D01*
X19484162Y55505450D01*
X19404957Y55396434D01*
X19297733Y55185997D01*
X19224746Y54961369D01*
X19187800Y54728098D01*
X19187800Y54491903D01*
X19224746Y54258632D01*
X19297733Y54034004D01*
X19404959Y53823564D01*
X19445775Y53767385D01*
X19469255Y53701579D01*
X19453430Y53633525D01*
X19403324Y53584830D01*
X19345457Y53570500D01*
X18931903Y53570500D01*
X18698631Y53533554D01*
X18474003Y53460567D01*
X18263566Y53353343D01*
X18183471Y53295150D01*
X18072490Y53214517D01*
X18072488Y53214515D01*
X18072487Y53214515D01*
X17905485Y53047513D01*
X17905485Y53047512D01*
X17905483Y53047510D01*
X17845862Y52965450D01*
X17766657Y52856434D01*
X17659433Y52645997D01*
X17586446Y52421369D01*
X17549500Y52188098D01*
X17549500Y51951903D01*
X17586446Y51718632D01*
X17659433Y51494004D01*
X17752954Y51310461D01*
X17766657Y51283567D01*
X17905483Y51092490D01*
X18072490Y50925483D01*
X18263567Y50786657D01*
X18350499Y50742363D01*
X18474003Y50679434D01*
X18474005Y50679434D01*
X18474008Y50679432D01*
X18594412Y50640311D01*
X18698631Y50606447D01*
X18931903Y50569500D01*
X18931908Y50569500D01*
X20806397Y50569500D01*
X21039668Y50606447D01*
X21039674Y50606449D01*
X21225482Y50666823D01*
X21295322Y50668817D01*
X21355155Y50632737D01*
X21385984Y50570036D01*
X21387800Y50548891D01*
X21387800Y48614500D01*
X21368115Y48547461D01*
X21315311Y48501706D01*
X21263800Y48490500D01*
X20570203Y48490500D01*
X20336931Y48453554D01*
X20112303Y48380567D01*
X19901866Y48273343D01*
X19792850Y48194138D01*
X19710790Y48134517D01*
X19710788Y48134515D01*
X19710787Y48134515D01*
X19543785Y47967513D01*
X19543785Y47967512D01*
X19543783Y47967510D01*
X19496059Y47901824D01*
X19404957Y47776434D01*
X19297733Y47565997D01*
X19224746Y47341369D01*
X19187800Y47108098D01*
X19187800Y46871903D01*
X19224746Y46638632D01*
X19297733Y46414004D01*
X19404959Y46203564D01*
X19445775Y46147385D01*
X19469255Y46081579D01*
X19453430Y46013525D01*
X19403324Y45964830D01*
X19345457Y45950500D01*
X18931903Y45950500D01*
X18698631Y45913554D01*
X18474003Y45840567D01*
X18263566Y45733343D01*
X18154550Y45654138D01*
X18072490Y45594517D01*
X18072488Y45594515D01*
X18072487Y45594515D01*
X17905485Y45427513D01*
X17905485Y45427512D01*
X17905483Y45427510D01*
X17845862Y45345450D01*
X17766657Y45236434D01*
X17659433Y45025997D01*
X17586446Y44801369D01*
X17549500Y44568098D01*
X17549500Y44331903D01*
X17586446Y44098632D01*
X17659433Y43874004D01*
X17752954Y43690461D01*
X17766657Y43663567D01*
X17905483Y43472490D01*
X18072490Y43305483D01*
X18263567Y43166657D01*
X18350499Y43122363D01*
X18474003Y43059434D01*
X18474005Y43059434D01*
X18474008Y43059432D01*
X18594412Y43020311D01*
X18698631Y42986447D01*
X18931903Y42949500D01*
X18931908Y42949500D01*
X20806397Y42949500D01*
X21039668Y42986447D01*
X21225482Y43046823D01*
X21295322Y43048817D01*
X21355155Y43012737D01*
X21385984Y42950036D01*
X21387800Y42928891D01*
X21387800Y40994500D01*
X21368115Y40927461D01*
X21315311Y40881706D01*
X21263800Y40870500D01*
X20570203Y40870500D01*
X20336931Y40833554D01*
X20112303Y40760567D01*
X19901866Y40653343D01*
X19792850Y40574138D01*
X19710790Y40514517D01*
X19710788Y40514515D01*
X19710787Y40514515D01*
X19543785Y40347513D01*
X19543785Y40347512D01*
X19543783Y40347510D01*
X19484162Y40265450D01*
X19404957Y40156434D01*
X19297733Y39945997D01*
X19224746Y39721369D01*
X19187800Y39488098D01*
X19187800Y39251903D01*
X19224746Y39018632D01*
X19297733Y38794004D01*
X19404959Y38583564D01*
X19445775Y38527385D01*
X19469255Y38461579D01*
X19453430Y38393525D01*
X19403324Y38344830D01*
X19345457Y38330500D01*
X18931903Y38330500D01*
X18698631Y38293554D01*
X18474003Y38220567D01*
X18263566Y38113343D01*
X18154550Y38034138D01*
X18072490Y37974517D01*
X18072488Y37974515D01*
X18072487Y37974515D01*
X17905485Y37807513D01*
X17905485Y37807512D01*
X17905483Y37807510D01*
X17845862Y37725450D01*
X17766657Y37616434D01*
X17659433Y37405997D01*
X17586446Y37181369D01*
X17549500Y36948098D01*
X17549500Y36711903D01*
X17586446Y36478632D01*
X17659433Y36254004D01*
X17761920Y36052863D01*
X17766657Y36043567D01*
X17905483Y35852490D01*
X18072490Y35685483D01*
X18263567Y35546657D01*
X18343014Y35506177D01*
X18474003Y35439434D01*
X18474005Y35439434D01*
X18474008Y35439432D01*
X18557007Y35412464D01*
X18698631Y35366447D01*
X18931903Y35329500D01*
X18931908Y35329500D01*
X20806397Y35329500D01*
X21039668Y35366447D01*
X21264292Y35439432D01*
X21474733Y35546657D01*
X21665810Y35685483D01*
X21832817Y35852490D01*
X21971643Y36043567D01*
X22078868Y36254008D01*
X22129653Y36410310D01*
X22169089Y36467982D01*
X22233448Y36495181D01*
X22285901Y36489921D01*
X22305413Y36483581D01*
X22343416Y36471232D01*
X22576688Y36434285D01*
X22576693Y36434285D01*
X22812882Y36434285D01*
X23046154Y36471232D01*
X23068929Y36478632D01*
X23270778Y36544217D01*
X23481219Y36651442D01*
X23672295Y36790267D01*
X23839303Y36957275D01*
X23839304Y36957277D01*
X24032818Y37150790D01*
X24171643Y37341867D01*
X24205015Y37407365D01*
X24252989Y37458160D01*
X24320810Y37474955D01*
X24386945Y37452418D01*
X24430397Y37397703D01*
X24439500Y37351069D01*
X24439500Y37259144D01*
X24477947Y37065860D01*
X24477949Y37065852D01*
X24495470Y37023553D01*
X24495470Y37023552D01*
X24553364Y36883781D01*
X24553371Y36883768D01*
X24662859Y36719908D01*
X24662860Y36719907D01*
X24662861Y36719906D01*
X24802218Y36580549D01*
X24802219Y36580549D01*
X24809286Y36573482D01*
X24809285Y36573482D01*
X24809289Y36573479D01*
X25329903Y36052863D01*
X25329907Y36052860D01*
X25493767Y35943372D01*
X25493773Y35943369D01*
X25493774Y35943368D01*
X25675853Y35867948D01*
X25812365Y35840794D01*
X25869143Y35829500D01*
X25869146Y35829499D01*
X25869803Y35829499D01*
X25870134Y35829402D01*
X25875208Y35828902D01*
X25875113Y35827940D01*
X25936842Y35809814D01*
X25982597Y35757010D01*
X25992541Y35687852D01*
X25963516Y35624296D01*
X25926098Y35595014D01*
X25883565Y35573343D01*
X25692488Y35434516D01*
X22985484Y32727512D01*
X22846657Y32536435D01*
X22739433Y32325997D01*
X22666446Y32101369D01*
X22629500Y31868098D01*
X22629500Y22748993D01*
X22609815Y22681954D01*
X22557011Y22636199D01*
X22487853Y22626255D01*
X22434377Y22647418D01*
X22267834Y22764033D01*
X22267830Y22764035D01*
X22267828Y22764036D01*
X22053663Y22863903D01*
X22053659Y22863904D01*
X22053655Y22863906D01*
X21825413Y22925062D01*
X21825403Y22925064D01*
X21590001Y22945659D01*
X21589999Y22945659D01*
X21354596Y22925064D01*
X21354586Y22925062D01*
X21126344Y22863906D01*
X21126335Y22863902D01*
X20912171Y22764036D01*
X20912169Y22764035D01*
X20718597Y22628495D01*
X20551505Y22461403D01*
X20421575Y22275842D01*
X20366998Y22232217D01*
X20297500Y22225023D01*
X20235145Y22256546D01*
X20218425Y22275842D01*
X20088494Y22461403D01*
X19921402Y22628494D01*
X19921395Y22628499D01*
X19910398Y22636199D01*
X19845054Y22681954D01*
X19727834Y22764033D01*
X19727830Y22764035D01*
X19727828Y22764036D01*
X19513663Y22863903D01*
X19513659Y22863904D01*
X19513655Y22863906D01*
X19285413Y22925062D01*
X19285403Y22925064D01*
X19050001Y22945659D01*
X19049999Y22945659D01*
X18814596Y22925064D01*
X18814586Y22925062D01*
X18586344Y22863906D01*
X18586335Y22863902D01*
X18372171Y22764036D01*
X18372169Y22764035D01*
X18178597Y22628495D01*
X18011505Y22461403D01*
X17881575Y22275842D01*
X17826998Y22232217D01*
X17757500Y22225023D01*
X17695145Y22256546D01*
X17678425Y22275842D01*
X17548494Y22461403D01*
X17381402Y22628494D01*
X17381395Y22628499D01*
X17370398Y22636199D01*
X17305054Y22681954D01*
X17187834Y22764033D01*
X17187830Y22764035D01*
X17187828Y22764036D01*
X16973663Y22863903D01*
X16973659Y22863904D01*
X16973655Y22863906D01*
X16745413Y22925062D01*
X16745403Y22925064D01*
X16510001Y22945659D01*
X16509999Y22945659D01*
X16274596Y22925064D01*
X16274586Y22925062D01*
X16046344Y22863906D01*
X16046335Y22863902D01*
X15832171Y22764036D01*
X15832169Y22764035D01*
X15638597Y22628495D01*
X15471505Y22461403D01*
X15341575Y22275842D01*
X15286998Y22232217D01*
X15217500Y22225023D01*
X15155145Y22256546D01*
X15138425Y22275842D01*
X15008494Y22461403D01*
X14841402Y22628494D01*
X14841395Y22628499D01*
X14830398Y22636199D01*
X14765054Y22681954D01*
X14647834Y22764033D01*
X14647830Y22764035D01*
X14647828Y22764036D01*
X14433663Y22863903D01*
X14433659Y22863904D01*
X14433655Y22863906D01*
X14205413Y22925062D01*
X14205403Y22925064D01*
X13970001Y22945659D01*
X13969999Y22945659D01*
X13734596Y22925064D01*
X13734586Y22925062D01*
X13506344Y22863906D01*
X13506335Y22863902D01*
X13292171Y22764036D01*
X13292169Y22764035D01*
X13098597Y22628495D01*
X12931505Y22461403D01*
X12801575Y22275842D01*
X12746998Y22232217D01*
X12677500Y22225023D01*
X12615145Y22256546D01*
X12598425Y22275842D01*
X12468494Y22461403D01*
X12301402Y22628494D01*
X12301395Y22628499D01*
X12290398Y22636199D01*
X12225054Y22681954D01*
X12107834Y22764033D01*
X12107830Y22764035D01*
X12107828Y22764036D01*
X11893663Y22863903D01*
X11893659Y22863904D01*
X11893655Y22863906D01*
X11665413Y22925062D01*
X11665403Y22925064D01*
X11430001Y22945659D01*
X11429999Y22945659D01*
X11194596Y22925064D01*
X11194586Y22925062D01*
X10966344Y22863906D01*
X10966335Y22863902D01*
X10752171Y22764036D01*
X10752169Y22764035D01*
X10558597Y22628495D01*
X10391505Y22461403D01*
X10261575Y22275842D01*
X10206998Y22232217D01*
X10137500Y22225023D01*
X10075145Y22256546D01*
X10058425Y22275842D01*
X9928494Y22461403D01*
X9761402Y22628494D01*
X9761395Y22628499D01*
X9750398Y22636199D01*
X9685054Y22681954D01*
X9567834Y22764033D01*
X9567830Y22764035D01*
X9567828Y22764036D01*
X9353663Y22863903D01*
X9353659Y22863904D01*
X9353655Y22863906D01*
X9125413Y22925062D01*
X9125403Y22925064D01*
X8890001Y22945659D01*
X8889999Y22945659D01*
X8654596Y22925064D01*
X8654586Y22925062D01*
X8426344Y22863906D01*
X8426335Y22863902D01*
X8212171Y22764036D01*
X8212169Y22764035D01*
X8018597Y22628495D01*
X7851505Y22461403D01*
X7721575Y22275842D01*
X7666998Y22232217D01*
X7597500Y22225023D01*
X7535145Y22256546D01*
X7518425Y22275842D01*
X7388494Y22461403D01*
X7221402Y22628494D01*
X7221395Y22628499D01*
X7210398Y22636199D01*
X7145054Y22681954D01*
X7027834Y22764033D01*
X7027830Y22764035D01*
X7027828Y22764036D01*
X6813663Y22863903D01*
X6813659Y22863904D01*
X6813655Y22863906D01*
X6585413Y22925062D01*
X6585403Y22925064D01*
X6350001Y22945659D01*
X6349999Y22945659D01*
X6114596Y22925064D01*
X6114586Y22925062D01*
X5886344Y22863906D01*
X5886335Y22863902D01*
X5672171Y22764036D01*
X5672169Y22764035D01*
X5478597Y22628495D01*
X5311505Y22461403D01*
X5181575Y22275842D01*
X5126998Y22232217D01*
X5057500Y22225023D01*
X4995145Y22256546D01*
X4978425Y22275842D01*
X4848494Y22461403D01*
X4681402Y22628494D01*
X4681395Y22628499D01*
X4670398Y22636199D01*
X4605054Y22681954D01*
X4487834Y22764033D01*
X4487830Y22764035D01*
X4487828Y22764036D01*
X4273663Y22863903D01*
X4273659Y22863904D01*
X4273655Y22863906D01*
X4045413Y22925062D01*
X4045403Y22925064D01*
X3810001Y22945659D01*
X3809999Y22945659D01*
X3574596Y22925064D01*
X3574583Y22925061D01*
X3416592Y22882729D01*
X3346742Y22884392D01*
X3288880Y22923555D01*
X3261377Y22987784D01*
X3260500Y23002504D01*
X3260500Y25217111D01*
X3280185Y25284150D01*
X3296819Y25304792D01*
X5965025Y27972998D01*
X12574517Y34582490D01*
X12713343Y34773566D01*
X12820568Y34984008D01*
X12893553Y35208631D01*
X12914765Y35342557D01*
X12930500Y35441903D01*
X12930500Y57268098D01*
X12893553Y57501369D01*
X12822075Y57721353D01*
X12821012Y57725120D01*
X12820568Y57725992D01*
X12820568Y57725993D01*
X12713343Y57936434D01*
X12574517Y58127510D01*
X9867510Y60834517D01*
X9676434Y60973343D01*
X9673227Y60974977D01*
X9465996Y61080567D01*
X9241368Y61153554D01*
X9008097Y61190500D01*
X9008092Y61190500D01*
X8771908Y61190500D01*
X8771903Y61190500D01*
X8538631Y61153554D01*
X8314003Y61080567D01*
X8103562Y60973341D01*
X8047385Y60932526D01*
X7981579Y60909046D01*
X7913525Y60924872D01*
X7864830Y60974977D01*
X7850500Y61032844D01*
X7850500Y65967157D01*
X7870185Y66034196D01*
X7922989Y66079951D01*
X7992147Y66089895D01*
X8047386Y66067474D01*
X8103561Y66026660D01*
X8103563Y66026659D01*
X8103566Y66026657D01*
X8190498Y65982363D01*
X8314003Y65919434D01*
X8314005Y65919434D01*
X8314008Y65919432D01*
X8434412Y65880311D01*
X8538631Y65846447D01*
X8771903Y65809500D01*
X8771908Y65809500D01*
X9008097Y65809500D01*
X9241368Y65846447D01*
X9465992Y65919432D01*
X9676434Y66026657D01*
X9867510Y66165483D01*
X10745208Y67043181D01*
X10806531Y67076666D01*
X10832889Y67079500D01*
X14020178Y67079500D01*
X14253449Y67116447D01*
X14478073Y67189432D01*
X14688515Y67296657D01*
X14879591Y67435483D01*
X23546239Y76102130D01*
X59579500Y76102130D01*
X59579501Y76102124D01*
X59585908Y76042517D01*
X59636202Y75907672D01*
X59636206Y75907665D01*
X59722452Y75792456D01*
X59722455Y75792453D01*
X59837664Y75706207D01*
X59837671Y75706203D01*
X59972517Y75655909D01*
X59972516Y75655909D01*
X59979444Y75655165D01*
X60032127Y75649500D01*
X62127872Y75649501D01*
X62187483Y75655909D01*
X62322331Y75706204D01*
X62437546Y75792454D01*
X62523796Y75907669D01*
X62574091Y76042517D01*
X62580500Y76102127D01*
X62580499Y77097872D01*
X62574091Y77157483D01*
X62523796Y77292331D01*
X62523795Y77292332D01*
X62523793Y77292336D01*
X62437547Y77407545D01*
X62437544Y77407548D01*
X62322335Y77493794D01*
X62322328Y77493798D01*
X62187482Y77544092D01*
X62187483Y77544092D01*
X62127883Y77550499D01*
X62127881Y77550500D01*
X62127873Y77550500D01*
X62127864Y77550500D01*
X60032129Y77550500D01*
X60032123Y77550499D01*
X59972516Y77544092D01*
X59837671Y77493798D01*
X59837664Y77493794D01*
X59722455Y77407548D01*
X59722452Y77407545D01*
X59636206Y77292336D01*
X59636202Y77292329D01*
X59585908Y77157483D01*
X59579501Y77097884D01*
X59579501Y77097877D01*
X59579500Y77097865D01*
X59579500Y76102130D01*
X23546239Y76102130D01*
X25274518Y77830409D01*
X25413343Y78021486D01*
X25520568Y78231927D01*
X25593553Y78456551D01*
X25608754Y78552527D01*
X25630500Y78689822D01*
X25630500Y78851008D01*
X25650185Y78918047D01*
X25702989Y78963802D01*
X25772147Y78973746D01*
X25825620Y78952585D01*
X25992170Y78835965D01*
X26206337Y78736097D01*
X26434592Y78674937D01*
X26622918Y78658461D01*
X26669999Y78654341D01*
X26670000Y78654341D01*
X26670001Y78654341D01*
X26709234Y78657774D01*
X26905408Y78674937D01*
X27133663Y78736097D01*
X27347830Y78835965D01*
X27541401Y78971505D01*
X27708495Y79138599D01*
X27838425Y79324158D01*
X27893002Y79367783D01*
X27962500Y79374977D01*
X28024855Y79343454D01*
X28041575Y79324158D01*
X28171500Y79138605D01*
X28171505Y79138599D01*
X28338599Y78971505D01*
X28403571Y78926011D01*
X28532165Y78835968D01*
X28532167Y78835967D01*
X28532170Y78835965D01*
X28746337Y78736097D01*
X28974592Y78674937D01*
X29162918Y78658461D01*
X29209999Y78654341D01*
X29210000Y78654341D01*
X29210001Y78654341D01*
X29249234Y78657774D01*
X29445408Y78674937D01*
X29673663Y78736097D01*
X29887830Y78835965D01*
X30081401Y78971505D01*
X30248495Y79138599D01*
X30378425Y79324158D01*
X30433002Y79367783D01*
X30502500Y79374977D01*
X30564855Y79343454D01*
X30581575Y79324158D01*
X30711500Y79138605D01*
X30711505Y79138599D01*
X30878599Y78971505D01*
X30943571Y78926011D01*
X31072165Y78835968D01*
X31072167Y78835967D01*
X31072170Y78835965D01*
X31286337Y78736097D01*
X31514592Y78674937D01*
X31702918Y78658461D01*
X31749999Y78654341D01*
X31750000Y78654341D01*
X31750001Y78654341D01*
X31789234Y78657774D01*
X31985408Y78674937D01*
X32213663Y78736097D01*
X32427830Y78835965D01*
X32621401Y78971505D01*
X32788495Y79138599D01*
X32918425Y79324158D01*
X32973002Y79367783D01*
X33042500Y79374977D01*
X33104855Y79343454D01*
X33121575Y79324158D01*
X33251500Y79138605D01*
X33251505Y79138599D01*
X33418599Y78971505D01*
X33483571Y78926011D01*
X33612165Y78835968D01*
X33612167Y78835967D01*
X33612170Y78835965D01*
X33826337Y78736097D01*
X34054592Y78674937D01*
X34242918Y78658461D01*
X34289999Y78654341D01*
X34290000Y78654341D01*
X34290001Y78654341D01*
X34329234Y78657774D01*
X34525408Y78674937D01*
X34753663Y78736097D01*
X34967830Y78835965D01*
X35161401Y78971505D01*
X35328495Y79138599D01*
X35458425Y79324158D01*
X35513002Y79367783D01*
X35582500Y79374977D01*
X35644855Y79343454D01*
X35661575Y79324158D01*
X35791500Y79138605D01*
X35791505Y79138599D01*
X35958599Y78971505D01*
X36023571Y78926011D01*
X36152165Y78835968D01*
X36152167Y78835967D01*
X36152170Y78835965D01*
X36366337Y78736097D01*
X36594592Y78674937D01*
X36782918Y78658461D01*
X36829999Y78654341D01*
X36830000Y78654341D01*
X36830001Y78654341D01*
X36869234Y78657774D01*
X37065408Y78674937D01*
X37293663Y78736097D01*
X37507830Y78835965D01*
X37701401Y78971505D01*
X37868495Y79138599D01*
X37998425Y79324158D01*
X38053002Y79367783D01*
X38122500Y79374977D01*
X38184855Y79343454D01*
X38201575Y79324158D01*
X38331500Y79138605D01*
X38331505Y79138599D01*
X38498599Y78971505D01*
X38563571Y78926011D01*
X38692165Y78835968D01*
X38692167Y78835967D01*
X38692170Y78835965D01*
X38906337Y78736097D01*
X39134592Y78674937D01*
X39322918Y78658461D01*
X39369999Y78654341D01*
X39370000Y78654341D01*
X39370001Y78654341D01*
X39409234Y78657774D01*
X39605408Y78674937D01*
X39833663Y78736097D01*
X40047830Y78835965D01*
X40241401Y78971505D01*
X40408495Y79138599D01*
X40538425Y79324158D01*
X40593002Y79367783D01*
X40662500Y79374977D01*
X40724855Y79343454D01*
X40741575Y79324158D01*
X40871500Y79138605D01*
X40871505Y79138599D01*
X41038599Y78971505D01*
X41103571Y78926011D01*
X41232165Y78835968D01*
X41232167Y78835967D01*
X41232170Y78835965D01*
X41446337Y78736097D01*
X41674592Y78674937D01*
X41862918Y78658461D01*
X41909999Y78654341D01*
X41910000Y78654341D01*
X41910001Y78654341D01*
X41949234Y78657774D01*
X42145408Y78674937D01*
X42373663Y78736097D01*
X42587830Y78835965D01*
X42781401Y78971505D01*
X42948495Y79138599D01*
X43078425Y79324158D01*
X43133002Y79367783D01*
X43202500Y79374977D01*
X43264855Y79343454D01*
X43281575Y79324158D01*
X43411500Y79138605D01*
X43411505Y79138599D01*
X43578599Y78971505D01*
X43643571Y78926011D01*
X43772165Y78835968D01*
X43772167Y78835967D01*
X43772170Y78835965D01*
X43986337Y78736097D01*
X44214592Y78674937D01*
X44402918Y78658461D01*
X44449999Y78654341D01*
X44450000Y78654341D01*
X44450001Y78654341D01*
X44489234Y78657774D01*
X44685408Y78674937D01*
X44913663Y78736097D01*
X45127830Y78835965D01*
X45321401Y78971505D01*
X45488495Y79138599D01*
X45618425Y79324158D01*
X45673002Y79367783D01*
X45742500Y79374977D01*
X45804855Y79343454D01*
X45821575Y79324158D01*
X45951500Y79138605D01*
X45951505Y79138599D01*
X46118599Y78971505D01*
X46183571Y78926011D01*
X46312165Y78835968D01*
X46312167Y78835967D01*
X46312170Y78835965D01*
X46526337Y78736097D01*
X46754592Y78674937D01*
X46942918Y78658461D01*
X46989999Y78654341D01*
X46990000Y78654341D01*
X46990001Y78654341D01*
X47029234Y78657774D01*
X47225408Y78674937D01*
X47453663Y78736097D01*
X47667830Y78835965D01*
X47861401Y78971505D01*
X48028495Y79138599D01*
X48158425Y79324158D01*
X48213002Y79367783D01*
X48282500Y79374977D01*
X48344855Y79343454D01*
X48361575Y79324158D01*
X48491500Y79138605D01*
X48491505Y79138599D01*
X48658599Y78971505D01*
X48723571Y78926011D01*
X48852165Y78835968D01*
X48852167Y78835967D01*
X48852170Y78835965D01*
X49066337Y78736097D01*
X49294592Y78674937D01*
X49482918Y78658461D01*
X49529999Y78654341D01*
X49530000Y78654341D01*
X49530001Y78654341D01*
X49569234Y78657774D01*
X49765408Y78674937D01*
X49993663Y78736097D01*
X50207830Y78835965D01*
X50401401Y78971505D01*
X50568495Y79138599D01*
X50704035Y79332170D01*
X50803903Y79546337D01*
X50865063Y79774592D01*
X50885659Y80010000D01*
X50865063Y80245408D01*
X50803903Y80473663D01*
X50704035Y80687829D01*
X50698425Y80695842D01*
X50568494Y80881403D01*
X50401402Y81048494D01*
X50401396Y81048499D01*
X50215842Y81178425D01*
X50172217Y81233002D01*
X50165023Y81302500D01*
X50196546Y81364855D01*
X50215842Y81381575D01*
X50347628Y81473853D01*
X50401401Y81511505D01*
X50568495Y81678599D01*
X50704035Y81872170D01*
X50803903Y82086337D01*
X50865063Y82314592D01*
X50885659Y82550000D01*
X50865063Y82785408D01*
X50822728Y82943407D01*
X50824391Y83013257D01*
X50863554Y83071119D01*
X50927782Y83098623D01*
X50942503Y83099500D01*
X60777111Y83099500D01*
X60844150Y83079815D01*
G37*
%TD.AperFunction*%
%TA.AperFunction,Conductor*%
G36*
X16937384Y8917476D02*
G01*
X16971743Y8892513D01*
X16993565Y8876658D01*
X17204003Y8769434D01*
X17204005Y8769434D01*
X17204008Y8769432D01*
X17324412Y8730311D01*
X17428631Y8696447D01*
X17661903Y8659500D01*
X17661908Y8659500D01*
X22492111Y8659500D01*
X22559150Y8639815D01*
X22579792Y8623181D01*
X23878181Y7324792D01*
X23911666Y7263469D01*
X23914500Y7237111D01*
X23914500Y5774500D01*
X23894815Y5707461D01*
X23842011Y5661706D01*
X23790500Y5650500D01*
X16761109Y5650500D01*
X16694070Y5670185D01*
X16648315Y5722989D01*
X16638371Y5792147D01*
X16643178Y5812819D01*
X16703553Y5998632D01*
X16740500Y6231903D01*
X16740500Y8817158D01*
X16760185Y8884197D01*
X16812989Y8929952D01*
X16882147Y8939896D01*
X16937384Y8917476D01*
G37*
%TD.AperFunction*%
%TA.AperFunction,Conductor*%
G36*
X29637384Y8917476D02*
G01*
X29671743Y8892513D01*
X29693565Y8876658D01*
X29904003Y8769434D01*
X29904005Y8769434D01*
X29904008Y8769432D01*
X30024412Y8730311D01*
X30128631Y8696447D01*
X30361903Y8659500D01*
X30361908Y8659500D01*
X35177111Y8659500D01*
X35244150Y8639815D01*
X35264792Y8623181D01*
X36563181Y7324792D01*
X36596666Y7263469D01*
X36599500Y7237111D01*
X36599500Y5774500D01*
X36579815Y5707461D01*
X36527011Y5661706D01*
X36475500Y5650500D01*
X29476109Y5650500D01*
X29409070Y5670185D01*
X29363315Y5722989D01*
X29353371Y5792147D01*
X29358178Y5812819D01*
X29418553Y5998632D01*
X29455500Y6231903D01*
X29455500Y6468098D01*
X29442027Y6553160D01*
X29440500Y6572558D01*
X29440500Y8817158D01*
X29460185Y8884197D01*
X29512989Y8929952D01*
X29582147Y8939896D01*
X29637384Y8917476D01*
G37*
%TD.AperFunction*%
%TA.AperFunction,Conductor*%
G36*
X42337384Y8917476D02*
G01*
X42371743Y8892513D01*
X42393565Y8876658D01*
X42604003Y8769434D01*
X42604005Y8769434D01*
X42604008Y8769432D01*
X42724412Y8730311D01*
X42828631Y8696447D01*
X43061903Y8659500D01*
X43061908Y8659500D01*
X47892111Y8659500D01*
X47959150Y8639815D01*
X47979792Y8623181D01*
X49278181Y7324792D01*
X49311666Y7263469D01*
X49314500Y7237111D01*
X49314500Y5774500D01*
X49294815Y5707461D01*
X49242011Y5661706D01*
X49190500Y5650500D01*
X42161109Y5650500D01*
X42094070Y5670185D01*
X42048315Y5722989D01*
X42038371Y5792147D01*
X42043178Y5812819D01*
X42103553Y5998632D01*
X42140500Y6231903D01*
X42140500Y8817158D01*
X42160185Y8884197D01*
X42212989Y8929952D01*
X42282147Y8939896D01*
X42337384Y8917476D01*
G37*
%TD.AperFunction*%
%TA.AperFunction,Conductor*%
G36*
X55037383Y9041083D02*
G01*
X55145978Y8962185D01*
X55209238Y8929952D01*
X55342393Y8862105D01*
X55342396Y8862104D01*
X55417586Y8837674D01*
X55552049Y8793985D01*
X55769778Y8759500D01*
X60418532Y8759500D01*
X60485571Y8739815D01*
X60506213Y8723181D01*
X62063181Y7166213D01*
X62096666Y7104890D01*
X62099500Y7078532D01*
X62099500Y5774500D01*
X62079815Y5707461D01*
X62027011Y5661706D01*
X61975500Y5650500D01*
X54876109Y5650500D01*
X54809070Y5670185D01*
X54763315Y5722989D01*
X54753371Y5792147D01*
X54758178Y5812819D01*
X54818553Y5998632D01*
X54855500Y6231903D01*
X54855500Y6468098D01*
X54842027Y6553160D01*
X54840500Y6572558D01*
X54840500Y8940764D01*
X54860185Y9007803D01*
X54912989Y9053558D01*
X54982147Y9063502D01*
X55037383Y9041083D01*
G37*
%TD.AperFunction*%
%TA.AperFunction,Conductor*%
G36*
X28798809Y44007373D02*
G01*
X28812207Y43995766D01*
X30213181Y42594792D01*
X30246666Y42533469D01*
X30249500Y42507111D01*
X30249500Y39442844D01*
X30229815Y39375805D01*
X30177011Y39330050D01*
X30107853Y39320106D01*
X30052615Y39342526D01*
X29996437Y39383341D01*
X29996436Y39383342D01*
X29996434Y39383343D01*
X29930715Y39416829D01*
X29785996Y39490567D01*
X29561368Y39563554D01*
X29328097Y39600500D01*
X29328092Y39600500D01*
X29091908Y39600500D01*
X29091903Y39600500D01*
X28858631Y39563554D01*
X28634003Y39490567D01*
X28423565Y39383343D01*
X28232488Y39244516D01*
X28232487Y39244515D01*
X28124792Y39136819D01*
X28063469Y39103334D01*
X28037111Y39100500D01*
X27473157Y39100500D01*
X27279870Y39062053D01*
X27279860Y39062050D01*
X27097792Y38986636D01*
X27097779Y38986629D01*
X26933919Y38877140D01*
X26933913Y38877135D01*
X26916310Y38859533D01*
X26866755Y38831892D01*
X26867471Y38829973D01*
X26725361Y38776971D01*
X26725356Y38776968D01*
X26638811Y38712180D01*
X26573346Y38687763D01*
X26505073Y38702615D01*
X26455668Y38752020D01*
X26440500Y38811447D01*
X26440500Y41032412D01*
X26460185Y41099451D01*
X26462925Y41103535D01*
X26491200Y41143916D01*
X26570568Y41257266D01*
X26666739Y41463504D01*
X26725635Y41683308D01*
X26745468Y41910000D01*
X26725635Y42136692D01*
X26666739Y42356496D01*
X26570568Y42562734D01*
X26462924Y42716468D01*
X26440597Y42782674D01*
X26440500Y42787590D01*
X26440500Y43325500D01*
X26460185Y43392539D01*
X26512989Y43438294D01*
X26564500Y43449500D01*
X27670243Y43449500D01*
X27800282Y43475368D01*
X27863535Y43487949D01*
X28045614Y43563368D01*
X28209482Y43672861D01*
X28227082Y43690462D01*
X28276645Y43718101D01*
X28275927Y43720026D01*
X28418040Y43773031D01*
X28418039Y43773031D01*
X28418043Y43773032D01*
X28533258Y43859282D01*
X28565005Y43901692D01*
X28624824Y43981597D01*
X28627661Y43979473D01*
X28665069Y44016901D01*
X28733338Y44031772D01*
X28798809Y44007373D01*
G37*
%TD.AperFunction*%
%TA.AperFunction,Conductor*%
G36*
X28798809Y51627373D02*
G01*
X28812207Y51615766D01*
X32753181Y47674792D01*
X32786666Y47613469D01*
X32789500Y47587111D01*
X32789500Y44561889D01*
X32769815Y44494850D01*
X32717011Y44449095D01*
X32647853Y44439151D01*
X32584297Y44468176D01*
X32577819Y44474208D01*
X30187511Y46864516D01*
X29996434Y47003343D01*
X29785996Y47110567D01*
X29561368Y47183554D01*
X29328097Y47220500D01*
X29328092Y47220500D01*
X29091908Y47220500D01*
X29091903Y47220500D01*
X28858631Y47183554D01*
X28634003Y47110567D01*
X28423565Y47003343D01*
X28232488Y46864516D01*
X28232487Y46864515D01*
X28124792Y46756819D01*
X28063469Y46723334D01*
X28037111Y46720500D01*
X27473157Y46720500D01*
X27279870Y46682053D01*
X27279860Y46682050D01*
X27097792Y46606636D01*
X27097779Y46606629D01*
X26933919Y46497140D01*
X26933913Y46497135D01*
X26916310Y46479533D01*
X26866755Y46451892D01*
X26867471Y46449973D01*
X26725361Y46396971D01*
X26725352Y46396966D01*
X26603043Y46305404D01*
X26601787Y46307082D01*
X26550858Y46279272D01*
X26481166Y46284256D01*
X26425233Y46326128D01*
X26400816Y46391592D01*
X26400500Y46400438D01*
X26400500Y48652412D01*
X26420185Y48719451D01*
X26422925Y48723535D01*
X26516455Y48857111D01*
X26530568Y48877266D01*
X26626739Y49083504D01*
X26685635Y49303308D01*
X26705468Y49530000D01*
X26685635Y49756692D01*
X26626739Y49976496D01*
X26530568Y50182734D01*
X26422924Y50336468D01*
X26400597Y50402674D01*
X26400500Y50407590D01*
X26400500Y50945500D01*
X26420185Y51012539D01*
X26472989Y51058294D01*
X26524500Y51069500D01*
X27670243Y51069500D01*
X27800282Y51095368D01*
X27863535Y51107949D01*
X28045614Y51183368D01*
X28209482Y51292861D01*
X28227082Y51310462D01*
X28276645Y51338101D01*
X28275927Y51340026D01*
X28418040Y51393031D01*
X28418039Y51393031D01*
X28418043Y51393032D01*
X28533258Y51479282D01*
X28565005Y51521692D01*
X28624824Y51601597D01*
X28627661Y51599473D01*
X28665069Y51636901D01*
X28733338Y51651772D01*
X28798809Y51627373D01*
G37*
%TD.AperFunction*%
%TA.AperFunction,Conductor*%
G36*
X28798809Y59247373D02*
G01*
X28812207Y59235766D01*
X35293181Y52754792D01*
X35326666Y52693469D01*
X35329500Y52667111D01*
X35329500Y49641889D01*
X35309815Y49574850D01*
X35257011Y49529095D01*
X35187853Y49519151D01*
X35124297Y49548176D01*
X35117819Y49554208D01*
X30187511Y54484516D01*
X30016044Y54609095D01*
X29996434Y54623343D01*
X29934598Y54654850D01*
X29785996Y54730567D01*
X29561368Y54803554D01*
X29328097Y54840500D01*
X29328092Y54840500D01*
X29091908Y54840500D01*
X29091903Y54840500D01*
X28858631Y54803554D01*
X28634003Y54730567D01*
X28423565Y54623343D01*
X28232488Y54484516D01*
X28232487Y54484515D01*
X28124792Y54376819D01*
X28063469Y54343334D01*
X28037111Y54340500D01*
X27473157Y54340500D01*
X27279870Y54302053D01*
X27279860Y54302050D01*
X27097792Y54226636D01*
X27097779Y54226629D01*
X26933919Y54117140D01*
X26933913Y54117135D01*
X26916310Y54099533D01*
X26866755Y54071892D01*
X26867471Y54069973D01*
X26725361Y54016971D01*
X26725352Y54016966D01*
X26603043Y53925404D01*
X26601787Y53927082D01*
X26550858Y53899272D01*
X26481166Y53904256D01*
X26425233Y53946128D01*
X26400816Y54011592D01*
X26400500Y54020438D01*
X26400500Y56272412D01*
X26420185Y56339451D01*
X26422925Y56343535D01*
X26516455Y56477111D01*
X26530568Y56497266D01*
X26626739Y56703504D01*
X26685635Y56923308D01*
X26705468Y57150000D01*
X26685635Y57376692D01*
X26626739Y57596496D01*
X26530568Y57802734D01*
X26422924Y57956468D01*
X26400597Y58022674D01*
X26400500Y58027590D01*
X26400500Y58565500D01*
X26420185Y58632539D01*
X26472989Y58678294D01*
X26524500Y58689500D01*
X27670243Y58689500D01*
X27800282Y58715368D01*
X27863535Y58727949D01*
X28045614Y58803368D01*
X28209482Y58912861D01*
X28227082Y58930462D01*
X28276645Y58958101D01*
X28275927Y58960026D01*
X28418040Y59013031D01*
X28418039Y59013031D01*
X28418043Y59013032D01*
X28533258Y59099282D01*
X28590053Y59175150D01*
X28624824Y59221597D01*
X28627661Y59219473D01*
X28665069Y59256901D01*
X28733338Y59271772D01*
X28798809Y59247373D01*
G37*
%TD.AperFunction*%
%TA.AperFunction,Conductor*%
G36*
X28798809Y66867373D02*
G01*
X28812207Y66855766D01*
X37833181Y57834792D01*
X37866666Y57773469D01*
X37869500Y57747111D01*
X37869500Y54721889D01*
X37849815Y54654850D01*
X37797011Y54609095D01*
X37727853Y54599151D01*
X37664297Y54628176D01*
X37657819Y54634208D01*
X30187511Y62104516D01*
X30125596Y62149500D01*
X29996434Y62243343D01*
X29785996Y62350567D01*
X29561368Y62423554D01*
X29328097Y62460500D01*
X29328092Y62460500D01*
X29091908Y62460500D01*
X29091903Y62460500D01*
X28858631Y62423554D01*
X28634003Y62350567D01*
X28423565Y62243343D01*
X28232488Y62104516D01*
X28232487Y62104515D01*
X28124792Y61996819D01*
X28063469Y61963334D01*
X28037111Y61960500D01*
X27473157Y61960500D01*
X27279870Y61922053D01*
X27279860Y61922050D01*
X27097792Y61846636D01*
X27097779Y61846629D01*
X26933919Y61737140D01*
X26933913Y61737135D01*
X26916310Y61719533D01*
X26866755Y61691892D01*
X26867471Y61689973D01*
X26725361Y61636971D01*
X26725352Y61636966D01*
X26603043Y61545404D01*
X26601787Y61547082D01*
X26550858Y61519272D01*
X26481166Y61524256D01*
X26425233Y61566128D01*
X26400816Y61631592D01*
X26400500Y61640438D01*
X26400500Y63892412D01*
X26420185Y63959451D01*
X26422925Y63963535D01*
X26530568Y64117266D01*
X26626739Y64323504D01*
X26685635Y64543308D01*
X26705468Y64770000D01*
X26685635Y64996692D01*
X26626739Y65216496D01*
X26530568Y65422734D01*
X26422924Y65576468D01*
X26400597Y65642674D01*
X26400500Y65647590D01*
X26400500Y66185500D01*
X26420185Y66252539D01*
X26472989Y66298294D01*
X26524500Y66309500D01*
X27670243Y66309500D01*
X27800282Y66335368D01*
X27863535Y66347949D01*
X28045614Y66423368D01*
X28209482Y66532861D01*
X28227082Y66550462D01*
X28276645Y66578101D01*
X28275927Y66580026D01*
X28418040Y66633031D01*
X28418039Y66633031D01*
X28418043Y66633032D01*
X28533258Y66719282D01*
X28565005Y66761692D01*
X28624824Y66841597D01*
X28627661Y66839473D01*
X28665069Y66876901D01*
X28733338Y66891772D01*
X28798809Y66867373D01*
G37*
%TD.AperFunction*%
%TD*%
M02*
