%TF.GenerationSoftware,KiCad,Pcbnew,8.0.1*%
%TF.CreationDate,2024-10-19T15:00:55+09:00*%
%TF.ProjectId,kadai1,6b616461-6931-42e6-9b69-6361645f7063,rev?*%
%TF.SameCoordinates,PX4509570PY2f3c490*%
%TF.FileFunction,Legend,Bot*%
%TF.FilePolarity,Positive*%
%FSLAX46Y46*%
G04 Gerber Fmt 4.6, Leading zero omitted, Abs format (unit mm)*
G04 Created by KiCad (PCBNEW 8.0.1) date 2024-10-19 15:00:55*
%MOMM*%
%LPD*%
G01*
G04 APERTURE LIST*
%ADD10C,0.150000*%
%ADD11C,0.152400*%
G04 APERTURE END LIST*
D10*
X23368095Y-33565180D02*
X23368095Y-32755657D01*
X23368095Y-32755657D02*
X23415714Y-32660419D01*
X23415714Y-32660419D02*
X23463333Y-32612800D01*
X23463333Y-32612800D02*
X23558571Y-32565180D01*
X23558571Y-32565180D02*
X23749047Y-32565180D01*
X23749047Y-32565180D02*
X23844285Y-32612800D01*
X23844285Y-32612800D02*
X23891904Y-32660419D01*
X23891904Y-32660419D02*
X23939523Y-32755657D01*
X23939523Y-32755657D02*
X23939523Y-33565180D01*
X24320476Y-33565180D02*
X24939523Y-33565180D01*
X24939523Y-33565180D02*
X24606190Y-33184228D01*
X24606190Y-33184228D02*
X24749047Y-33184228D01*
X24749047Y-33184228D02*
X24844285Y-33136609D01*
X24844285Y-33136609D02*
X24891904Y-33088990D01*
X24891904Y-33088990D02*
X24939523Y-32993752D01*
X24939523Y-32993752D02*
X24939523Y-32755657D01*
X24939523Y-32755657D02*
X24891904Y-32660419D01*
X24891904Y-32660419D02*
X24844285Y-32612800D01*
X24844285Y-32612800D02*
X24749047Y-32565180D01*
X24749047Y-32565180D02*
X24463333Y-32565180D01*
X24463333Y-32565180D02*
X24368095Y-32612800D01*
X24368095Y-32612800D02*
X24320476Y-32660419D01*
X20434299Y-35354163D02*
X20434299Y-35592258D01*
X20672394Y-35497020D02*
X20434299Y-35592258D01*
X20434299Y-35592258D02*
X20196204Y-35497020D01*
X20577156Y-35782734D02*
X20434299Y-35592258D01*
X20434299Y-35592258D02*
X20291442Y-35782734D01*
X20434300Y-36444524D02*
X20434300Y-36206429D01*
X20196205Y-36301667D02*
X20434300Y-36206429D01*
X20434300Y-36206429D02*
X20672395Y-36301667D01*
X20291443Y-36015953D02*
X20434300Y-36206429D01*
X20434300Y-36206429D02*
X20577157Y-36015953D01*
X23368095Y-25945180D02*
X23368095Y-25135657D01*
X23368095Y-25135657D02*
X23415714Y-25040419D01*
X23415714Y-25040419D02*
X23463333Y-24992800D01*
X23463333Y-24992800D02*
X23558571Y-24945180D01*
X23558571Y-24945180D02*
X23749047Y-24945180D01*
X23749047Y-24945180D02*
X23844285Y-24992800D01*
X23844285Y-24992800D02*
X23891904Y-25040419D01*
X23891904Y-25040419D02*
X23939523Y-25135657D01*
X23939523Y-25135657D02*
X23939523Y-25945180D01*
X24368095Y-25849942D02*
X24415714Y-25897561D01*
X24415714Y-25897561D02*
X24510952Y-25945180D01*
X24510952Y-25945180D02*
X24749047Y-25945180D01*
X24749047Y-25945180D02*
X24844285Y-25897561D01*
X24844285Y-25897561D02*
X24891904Y-25849942D01*
X24891904Y-25849942D02*
X24939523Y-25754704D01*
X24939523Y-25754704D02*
X24939523Y-25659466D01*
X24939523Y-25659466D02*
X24891904Y-25516609D01*
X24891904Y-25516609D02*
X24320476Y-24945180D01*
X24320476Y-24945180D02*
X24939523Y-24945180D01*
X20434299Y-27734163D02*
X20434299Y-27972258D01*
X20672394Y-27877020D02*
X20434299Y-27972258D01*
X20434299Y-27972258D02*
X20196204Y-27877020D01*
X20577156Y-28162734D02*
X20434299Y-27972258D01*
X20434299Y-27972258D02*
X20291442Y-28162734D01*
X20434300Y-28824524D02*
X20434300Y-28586429D01*
X20196205Y-28681667D02*
X20434300Y-28586429D01*
X20434300Y-28586429D02*
X20672395Y-28681667D01*
X20291443Y-28395953D02*
X20434300Y-28586429D01*
X20434300Y-28586429D02*
X20577157Y-28395953D01*
X23368095Y-41185180D02*
X23368095Y-40375657D01*
X23368095Y-40375657D02*
X23415714Y-40280419D01*
X23415714Y-40280419D02*
X23463333Y-40232800D01*
X23463333Y-40232800D02*
X23558571Y-40185180D01*
X23558571Y-40185180D02*
X23749047Y-40185180D01*
X23749047Y-40185180D02*
X23844285Y-40232800D01*
X23844285Y-40232800D02*
X23891904Y-40280419D01*
X23891904Y-40280419D02*
X23939523Y-40375657D01*
X23939523Y-40375657D02*
X23939523Y-41185180D01*
X24844285Y-40851847D02*
X24844285Y-40185180D01*
X24606190Y-41232800D02*
X24368095Y-40518514D01*
X24368095Y-40518514D02*
X24987142Y-40518514D01*
X20434299Y-42974163D02*
X20434299Y-43212258D01*
X20672394Y-43117020D02*
X20434299Y-43212258D01*
X20434299Y-43212258D02*
X20196204Y-43117020D01*
X20577156Y-43402734D02*
X20434299Y-43212258D01*
X20434299Y-43212258D02*
X20291442Y-43402734D01*
X20434300Y-44064524D02*
X20434300Y-43826429D01*
X20196205Y-43921667D02*
X20434300Y-43826429D01*
X20434300Y-43826429D02*
X20672395Y-43921667D01*
X20291443Y-43635953D02*
X20434300Y-43826429D01*
X20434300Y-43826429D02*
X20577157Y-43635953D01*
X23368095Y-18325180D02*
X23368095Y-17515657D01*
X23368095Y-17515657D02*
X23415714Y-17420419D01*
X23415714Y-17420419D02*
X23463333Y-17372800D01*
X23463333Y-17372800D02*
X23558571Y-17325180D01*
X23558571Y-17325180D02*
X23749047Y-17325180D01*
X23749047Y-17325180D02*
X23844285Y-17372800D01*
X23844285Y-17372800D02*
X23891904Y-17420419D01*
X23891904Y-17420419D02*
X23939523Y-17515657D01*
X23939523Y-17515657D02*
X23939523Y-18325180D01*
X24939523Y-17325180D02*
X24368095Y-17325180D01*
X24653809Y-17325180D02*
X24653809Y-18325180D01*
X24653809Y-18325180D02*
X24558571Y-18182323D01*
X24558571Y-18182323D02*
X24463333Y-18087085D01*
X24463333Y-18087085D02*
X24368095Y-18039466D01*
X20434299Y-20114163D02*
X20434299Y-20352258D01*
X20672394Y-20257020D02*
X20434299Y-20352258D01*
X20434299Y-20352258D02*
X20196204Y-20257020D01*
X20577156Y-20542734D02*
X20434299Y-20352258D01*
X20434299Y-20352258D02*
X20291442Y-20542734D01*
X20434300Y-21204524D02*
X20434300Y-20966429D01*
X20196205Y-21061667D02*
X20434300Y-20966429D01*
X20434300Y-20966429D02*
X20672395Y-21061667D01*
X20291443Y-20775953D02*
X20434300Y-20966429D01*
X20434300Y-20966429D02*
X20577157Y-20775953D01*
X23368095Y-48805180D02*
X23368095Y-47995657D01*
X23368095Y-47995657D02*
X23415714Y-47900419D01*
X23415714Y-47900419D02*
X23463333Y-47852800D01*
X23463333Y-47852800D02*
X23558571Y-47805180D01*
X23558571Y-47805180D02*
X23749047Y-47805180D01*
X23749047Y-47805180D02*
X23844285Y-47852800D01*
X23844285Y-47852800D02*
X23891904Y-47900419D01*
X23891904Y-47900419D02*
X23939523Y-47995657D01*
X23939523Y-47995657D02*
X23939523Y-48805180D01*
X24891904Y-48805180D02*
X24415714Y-48805180D01*
X24415714Y-48805180D02*
X24368095Y-48328990D01*
X24368095Y-48328990D02*
X24415714Y-48376609D01*
X24415714Y-48376609D02*
X24510952Y-48424228D01*
X24510952Y-48424228D02*
X24749047Y-48424228D01*
X24749047Y-48424228D02*
X24844285Y-48376609D01*
X24844285Y-48376609D02*
X24891904Y-48328990D01*
X24891904Y-48328990D02*
X24939523Y-48233752D01*
X24939523Y-48233752D02*
X24939523Y-47995657D01*
X24939523Y-47995657D02*
X24891904Y-47900419D01*
X24891904Y-47900419D02*
X24844285Y-47852800D01*
X24844285Y-47852800D02*
X24749047Y-47805180D01*
X24749047Y-47805180D02*
X24510952Y-47805180D01*
X24510952Y-47805180D02*
X24415714Y-47852800D01*
X24415714Y-47852800D02*
X24368095Y-47900419D01*
X20434300Y-51684524D02*
X20434300Y-51446429D01*
X20196205Y-51541667D02*
X20434300Y-51446429D01*
X20434300Y-51446429D02*
X20672395Y-51541667D01*
X20291443Y-51255953D02*
X20434300Y-51446429D01*
X20434300Y-51446429D02*
X20577157Y-51255953D01*
X20434299Y-50594163D02*
X20434299Y-50832258D01*
X20672394Y-50737020D02*
X20434299Y-50832258D01*
X20434299Y-50832258D02*
X20196204Y-50737020D01*
X20577156Y-51022734D02*
X20434299Y-50832258D01*
X20434299Y-50832258D02*
X20291442Y-51022734D01*
D11*
%TO.C,U3*%
X21729700Y-31038800D02*
X21729700Y-35001200D01*
X21729700Y-35001200D02*
X26530300Y-35001200D01*
X26530300Y-31038800D02*
X21729700Y-31038800D01*
X26530300Y-35001200D02*
X26530300Y-31038800D01*
%TO.C,U2*%
X21729700Y-23418800D02*
X21729700Y-27381200D01*
X21729700Y-27381200D02*
X26530300Y-27381200D01*
X26530300Y-23418800D02*
X21729700Y-23418800D01*
X26530300Y-27381200D02*
X26530300Y-23418800D01*
%TO.C,U4*%
X21729700Y-38658800D02*
X21729700Y-42621200D01*
X21729700Y-42621200D02*
X26530300Y-42621200D01*
X26530300Y-38658800D02*
X21729700Y-38658800D01*
X26530300Y-42621200D02*
X26530300Y-38658800D01*
%TO.C,U1*%
X21729700Y-15798800D02*
X21729700Y-19761200D01*
X21729700Y-19761200D02*
X26530300Y-19761200D01*
X26530300Y-15798800D02*
X21729700Y-15798800D01*
X26530300Y-19761200D02*
X26530300Y-15798800D01*
%TO.C,U5*%
X21729700Y-46278800D02*
X21729700Y-50241200D01*
X21729700Y-50241200D02*
X26530300Y-50241200D01*
X26530300Y-46278800D02*
X21729700Y-46278800D01*
X26530300Y-50241200D02*
X26530300Y-46278800D01*
%TD*%
M02*
