%TF.GenerationSoftware,KiCad,Pcbnew,8.0.1*%
%TF.CreationDate,2024-10-19T15:00:55+09:00*%
%TF.ProjectId,kadai1,6b616461-6931-42e6-9b69-6361645f7063,rev?*%
%TF.SameCoordinates,PX4509570PY2f3c490*%
%TF.FileFunction,Copper,L1,Top*%
%TF.FilePolarity,Positive*%
%FSLAX46Y46*%
G04 Gerber Fmt 4.6, Leading zero omitted, Abs format (unit mm)*
G04 Created by KiCad (PCBNEW 8.0.1) date 2024-10-19 15:00:55*
%MOMM*%
%LPD*%
G01*
G04 APERTURE LIST*
G04 Aperture macros list*
%AMRoundRect*
0 Rectangle with rounded corners*
0 $1 Rounding radius*
0 $2 $3 $4 $5 $6 $7 $8 $9 X,Y pos of 4 corners*
0 Add a 4 corners polygon primitive as box body*
4,1,4,$2,$3,$4,$5,$6,$7,$8,$9,$2,$3,0*
0 Add four circle primitives for the rounded corners*
1,1,$1+$1,$2,$3*
1,1,$1+$1,$4,$5*
1,1,$1+$1,$6,$7*
1,1,$1+$1,$8,$9*
0 Add four rect primitives between the rounded corners*
20,1,$1+$1,$2,$3,$4,$5,0*
20,1,$1+$1,$4,$5,$6,$7,0*
20,1,$1+$1,$6,$7,$8,$9,0*
20,1,$1+$1,$8,$9,$2,$3,0*%
G04 Aperture macros list end*
%TA.AperFunction,ComponentPad*%
%ADD10C,1.600000*%
%TD*%
%TA.AperFunction,ComponentPad*%
%ADD11O,1.600000X1.600000*%
%TD*%
%TA.AperFunction,ComponentPad*%
%ADD12R,1.700000X1.700000*%
%TD*%
%TA.AperFunction,ComponentPad*%
%ADD13O,1.700000X1.700000*%
%TD*%
%TA.AperFunction,ComponentPad*%
%ADD14R,1.800000X1.800000*%
%TD*%
%TA.AperFunction,ComponentPad*%
%ADD15C,1.800000*%
%TD*%
%TA.AperFunction,ComponentPad*%
%ADD16C,1.700000*%
%TD*%
%TA.AperFunction,ComponentPad*%
%ADD17R,1.600000X1.600000*%
%TD*%
%TA.AperFunction,ComponentPad*%
%ADD18R,2.000000X0.900000*%
%TD*%
%TA.AperFunction,ComponentPad*%
%ADD19RoundRect,1.025000X-1.025000X1.025000X-1.025000X-1.025000X1.025000X-1.025000X1.025000X1.025000X0*%
%TD*%
%TA.AperFunction,ComponentPad*%
%ADD20C,4.100000*%
%TD*%
%TA.AperFunction,ViaPad*%
%ADD21C,0.600000*%
%TD*%
%TA.AperFunction,Conductor*%
%ADD22C,2.000000*%
%TD*%
G04 APERTURE END LIST*
D10*
%TO.P,R2,1*%
%TO.N,VCC*%
X63500000Y-26670000D03*
D11*
%TO.P,R2,2*%
%TO.N,Net-(D2-A)*%
X63500000Y-36830000D03*
%TD*%
D12*
%TO.P,J3,1,Pin_1*%
%TO.N,GND1*%
X48275000Y-80010000D03*
D13*
%TO.P,J3,2,Pin_2*%
%TO.N,VCC*%
X50815000Y-80010000D03*
%TO.P,J3,3,Pin_3*%
%TO.N,PWM2*%
X53355000Y-80010000D03*
%TD*%
D10*
%TO.P,R10,1*%
%TO.N,VCC*%
X17780000Y-76200000D03*
D11*
%TO.P,R10,2*%
%TO.N,PWM4*%
X27940000Y-76200000D03*
%TD*%
D10*
%TO.P,R9,1*%
%TO.N,B9*%
X8890000Y-41910000D03*
D11*
%TO.P,R9,2*%
%TO.N,Net-(R9-Pad2)*%
X19050000Y-41910000D03*
%TD*%
D10*
%TO.P,C6,1*%
%TO.N,VCC*%
X25400000Y-13970000D03*
%TO.P,C6,2*%
%TO.N,GND1*%
X27900000Y-13970000D03*
%TD*%
D12*
%TO.P,J5,1,Pin_1*%
%TO.N,GND1*%
X22875000Y-80010000D03*
D13*
%TO.P,J5,2,Pin_2*%
%TO.N,VCC*%
X25415000Y-80010000D03*
%TO.P,J5,3,Pin_3*%
%TO.N,PWM4*%
X27955000Y-80010000D03*
%TD*%
D10*
%TO.P,R8,1*%
%TO.N,VCC*%
X55880000Y-76200000D03*
D11*
%TO.P,R8,2*%
%TO.N,PWM1*%
X66040000Y-76200000D03*
%TD*%
D10*
%TO.P,R4,1*%
%TO.N,B7*%
X8890000Y-26670000D03*
D11*
%TO.P,R4,2*%
%TO.N,Net-(R4-Pad2)*%
X19050000Y-26670000D03*
%TD*%
D10*
%TO.P,C5,1*%
%TO.N,VCC*%
X25400000Y-21590000D03*
%TO.P,C5,2*%
%TO.N,GND1*%
X27900000Y-21590000D03*
%TD*%
D14*
%TO.P,D2,1,K*%
%TO.N,GND1*%
X63500000Y-44450000D03*
D15*
%TO.P,D2,2,A*%
%TO.N,Net-(D2-A)*%
X63500000Y-41910000D03*
%TD*%
D10*
%TO.P,R11,1*%
%TO.N,C6*%
X8890000Y-49530000D03*
D11*
%TO.P,R11,2*%
%TO.N,Net-(R11-Pad2)*%
X19050000Y-49530000D03*
%TD*%
D10*
%TO.P,C4,1*%
%TO.N,VCC*%
X25400000Y-29210000D03*
%TO.P,C4,2*%
%TO.N,GND1*%
X27900000Y-29210000D03*
%TD*%
D12*
%TO.P,J6,1,Pin_1*%
%TO.N,GND1*%
X10160000Y-80010000D03*
D13*
%TO.P,J6,2,Pin_2*%
%TO.N,VCC*%
X12700000Y-80010000D03*
%TO.P,J6,3,Pin_3*%
%TO.N,PWM5*%
X15240000Y-80010000D03*
%TD*%
D14*
%TO.P,D1,1,K*%
%TO.N,GND*%
X68580000Y-44450000D03*
D15*
%TO.P,D1,2,A*%
%TO.N,Net-(D1-A)*%
X68580000Y-41910000D03*
%TD*%
D10*
%TO.P,R6,1*%
%TO.N,B8*%
X8890000Y-34290000D03*
D11*
%TO.P,R6,2*%
%TO.N,Net-(R6-Pad2)*%
X19050000Y-34290000D03*
%TD*%
D10*
%TO.P,R1,1*%
%TO.N,+5V*%
X68580000Y-26670000D03*
D11*
%TO.P,R1,2*%
%TO.N,Net-(D1-A)*%
X68580000Y-36830000D03*
%TD*%
D16*
%TO.P,U6,1,RESET*%
%TO.N,unconnected-(U6-RESET-Pad1)*%
X19050000Y-64770000D03*
%TO.P,U6,2,BOOT0*%
%TO.N,unconnected-(U6-BOOT0-Pad2)*%
X11430000Y-67310000D03*
%TO.P,U6,3,IOREF*%
%TO.N,unconnected-(U6-IOREF-Pad3)*%
X16510000Y-64770000D03*
%TO.P,U6,4,AVDD*%
%TO.N,unconnected-(U6-AVDD-Pad4)*%
X11430000Y-6350000D03*
%TO.P,U6,5,VDD*%
%TO.N,unconnected-(U6-VDD-Pad5)*%
X8890000Y-67310000D03*
%TO.P,U6,6,VBAT*%
%TO.N,unconnected-(U6-VBAT-Pad6)*%
X44450000Y-67310000D03*
%TO.P,U6,7,VIN*%
%TO.N,unconnected-(U6-VIN-Pad7)*%
X31750000Y-64770000D03*
%TO.P,U6,8,U5V*%
%TO.N,unconnected-(U6-U5V-Pad8)*%
X11430000Y-3810000D03*
%TO.P,U6,9,E5V*%
%TO.N,unconnected-(U6-E5V-Pad9)*%
X8890000Y-64770000D03*
%TO.P,U6,10,+5V*%
%TO.N,+5V*%
X24130000Y-64770000D03*
%TO.P,U6,11,+3V3*%
%TO.N,unconnected-(U6-+3V3-Pad11)*%
X21590000Y-64770000D03*
%TO.P,U6,12,PA0(TIM2_CH1/TIM5_CH1/UART4_TX)*%
%TO.N,unconnected-(U6-PA0(TIM2_CH1{slash}TIM5_CH1{slash}UART4_TX)-Pad12)*%
X36830000Y-64770000D03*
%TO.P,U6,13,PA1(TIM2_CH2/TIM5CH2/UART4_RX)*%
%TO.N,unconnected-(U6-PA1(TIM2_CH2{slash}TIM5CH2{slash}UART4_RX)-Pad13)*%
X39370000Y-64770000D03*
%TO.P,U6,14,PA2(TIM2_CH3/TIM5_CH3/TIM9_CH1/USART2_TX)*%
%TO.N,unconnected-(U6-PA2(TIM2_CH3{slash}TIM5_CH3{slash}TIM9_CH1{slash}USART2_TX)-Pad14)*%
X46990000Y-6350000D03*
%TO.P,U6,15,PA3(TIM2_CH4/TIM5_CH4/TIM9_CH2/USART2_RX)*%
%TO.N,unconnected-(U6-PA3(TIM2_CH4{slash}TIM5_CH4{slash}TIM9_CH2{slash}USART2_RX)-Pad15)*%
X49530000Y-6350000D03*
%TO.P,U6,16,PA4*%
%TO.N,unconnected-(U6-PA4-Pad16)*%
X41910000Y-64770000D03*
%TO.P,U6,17,PA5(TIM2_CH1)*%
%TO.N,unconnected-(U6-PA5(TIM2_CH1)-Pad17)*%
X16510000Y-6350000D03*
%TO.P,U6,18,PA6(TIM3_CH1/TIM13_CH1)*%
%TO.N,unconnected-(U6-PA6(TIM3_CH1{slash}TIM13_CH1)-Pad18)*%
X19050000Y-6350000D03*
%TO.P,U6,19,PA7(TIM3_CH2/TIM14_CH1)*%
%TO.N,unconnected-(U6-PA7(TIM3_CH2{slash}TIM14_CH1)-Pad19)*%
X21590000Y-6350000D03*
%TO.P,U6,20,PA8(TIM1_CH1/12C3_SCL)*%
%TO.N,unconnected-(U6-PA8(TIM1_CH1{slash}12C3_SCL)-Pad20)*%
X31750000Y-6350000D03*
%TO.P,U6,21,PA9(TIM1_CH2/USART1_TX)*%
%TO.N,unconnected-(U6-PA9(TIM1_CH2{slash}USART1_TX)-Pad21)*%
X29210000Y-6350000D03*
%TO.P,U6,22,PA10(TIM1_CH3/USART1_RX)*%
%TO.N,unconnected-(U6-PA10(TIM1_CH3{slash}USART1_RX)-Pad22)*%
X44450000Y-6350000D03*
%TO.P,U6,23,PA11(TIM1_CH4/CAN1_RX)*%
%TO.N,unconnected-(U6-PA11(TIM1_CH4{slash}CAN1_RX)-Pad23)*%
X19050000Y-3810000D03*
%TO.P,U6,24,PA12(CAN1_TX)*%
%TO.N,unconnected-(U6-PA12(CAN1_TX)-Pad24)*%
X16510000Y-3810000D03*
%TO.P,U6,25,PA13(JTCK-SWDIO)*%
%TO.N,unconnected-(U6-PA13(JTCK-SWDIO)-Pad25)*%
X19050000Y-67310000D03*
%TO.P,U6,26,PA14(JTCK-SWCLK)*%
%TO.N,unconnected-(U6-PA14(JTCK-SWCLK)-Pad26)*%
X21590000Y-67310000D03*
%TO.P,U6,27,PA15(TIM2_CH1)*%
%TO.N,unconnected-(U6-PA15(TIM2_CH1)-Pad27)*%
X24130000Y-67310000D03*
%TO.P,U6,28,PD2(UART5_RX)*%
%TO.N,unconnected-(U6-PD2(UART5_RX)-Pad28)*%
X6350000Y-64770000D03*
%TO.P,U6,29,PH0*%
%TO.N,unconnected-(U6-PH0-Pad29)*%
X39370000Y-67310000D03*
%TO.P,U6,30,PH1*%
%TO.N,unconnected-(U6-PH1-Pad30)*%
X41910000Y-67310000D03*
%TO.P,U6,31,(TIM3_CH3)PB0*%
%TO.N,unconnected-(U6-(TIM3_CH3)PB0-Pad31)*%
X44450000Y-64770000D03*
%TO.P,U6,32,(TIM3_CH4)PB1*%
%TO.N,unconnected-(U6-(TIM3_CH4)PB1-Pad32)*%
X31750000Y-3810000D03*
%TO.P,U6,33,(TIM2_CH4)PB2*%
%TO.N,unconnected-(U6-(TIM2_CH4)PB2-Pad33)*%
X29210000Y-3810000D03*
%TO.P,U6,34,(TIM3_CH1/12C2_SDA)PB3*%
%TO.N,unconnected-(U6-(TIM3_CH1{slash}12C2_SDA)PB3-Pad34)*%
X41910000Y-6350000D03*
%TO.P,U6,35,(TIM3_CH1/12C3_SDA)PB4*%
%TO.N,unconnected-(U6-(TIM3_CH1{slash}12C3_SDA)PB4-Pad35)*%
X36830000Y-6350000D03*
%TO.P,U6,36,(TIM3_CH2/CAN2_RX)PB5*%
%TO.N,unconnected-(U6-(TIM3_CH2{slash}CAN2_RX)PB5-Pad36)*%
X39370000Y-6350000D03*
%TO.P,U6,37,(TIM4_CH1/12C1_SCL/USART1_TX/CAN2_TX)PB6*%
%TO.N,B6*%
X24130000Y-6350000D03*
%TO.P,U6,38,(TIM4_CH2/12C1_SDA/USART1_RX)PB7*%
%TO.N,B7*%
X29210000Y-67310000D03*
%TO.P,U6,39,(TIM2_CH1/TIM4_CH3/TIM10_CH1/12C1_SCL/CAN1_RX)PB8*%
%TO.N,B8*%
X6350000Y-6350000D03*
%TO.P,U6,40,(TIM2_CH2/TIM4_CH4/TIM11_CH1/12C1_SDA/CAN1_TX)PB9*%
%TO.N,B9*%
X8890000Y-6350000D03*
%TO.P,U6,41,(TIM_2CH3/12C2_SCL/USART3_RX)PB10*%
%TO.N,unconnected-(U6-(TIM_2CH3{slash}12C2_SCL{slash}USART3_RX)PB10-Pad41)*%
X34290000Y-6350000D03*
%TO.P,U6,42,(CAN2_RX)PB12*%
%TO.N,unconnected-(U6-(CAN2_RX)PB12-Pad42)*%
X21590000Y-3810000D03*
%TO.P,U6,43,(CAN2_TX)PB13*%
%TO.N,unconnected-(U6-(CAN2_TX)PB13-Pad43)*%
X39370000Y-3810000D03*
%TO.P,U6,44,(TIM12_CH1)PB14*%
%TO.N,unconnected-(U6-(TIM12_CH1)PB14-Pad44)*%
X36830000Y-3810000D03*
%TO.P,U6,45,(TIM12_CH2)PB15*%
%TO.N,unconnected-(U6-(TIM12_CH2)PB15-Pad45)*%
X34290000Y-3810000D03*
%TO.P,U6,46,PC0(PB9)*%
%TO.N,unconnected-(U6-PC0(PB9)-Pad46)*%
X49530000Y-64770000D03*
%TO.P,U6,47,PC1(PB9)*%
%TO.N,unconnected-(U6-PC1(PB9)-Pad47)*%
X46990000Y-64770000D03*
%TO.P,U6,48,PC2*%
%TO.N,unconnected-(U6-PC2-Pad48)*%
X46990000Y-67310000D03*
%TO.P,U6,49,PC3*%
%TO.N,unconnected-(U6-PC3-Pad49)*%
X49530000Y-67310000D03*
%TO.P,U6,50,PC4*%
%TO.N,unconnected-(U6-PC4-Pad50)*%
X44450000Y-3810000D03*
%TO.P,U6,51,(USART3_RX)PC5*%
%TO.N,unconnected-(U6-(USART3_RX)PC5-Pad51)*%
X8890000Y-3810000D03*
%TO.P,U6,52,(TIM3_CH1/TIM8_CH1/USART6_TX)PC6*%
%TO.N,C6*%
X6350000Y-3810000D03*
%TO.P,U6,53,(TIM3_CH2/TIM8_CH2/USART6_RX)PC7*%
%TO.N,unconnected-(U6-(TIM3_CH2{slash}TIM8_CH2{slash}USART6_RX)PC7-Pad53)*%
X26670000Y-6350000D03*
%TO.P,U6,54,(TIM3_CH3/TIM8_CH3)PC8*%
%TO.N,unconnected-(U6-(TIM3_CH3{slash}TIM8_CH3)PC8-Pad54)*%
X3810000Y-3810000D03*
%TO.P,U6,55,(TIM3_CH4/TIM8_CH4/12C3_SDA)PC9*%
%TO.N,unconnected-(U6-(TIM3_CH4{slash}TIM8_CH4{slash}12C3_SDA)PC9-Pad55)*%
X3810000Y-6350000D03*
%TO.P,U6,56,(USART3_TX/UART4_TX)PC10*%
%TO.N,unconnected-(U6-(USART3_TX{slash}UART4_TX)PC10-Pad56)*%
X3810000Y-67310000D03*
%TO.P,U6,57,(USART3_RX/UART4_RX)PC11*%
%TO.N,unconnected-(U6-(USART3_RX{slash}UART4_RX)PC11-Pad57)*%
X3810000Y-64770000D03*
%TO.P,U6,58,(12C2_SDA/UART5_TX)PC12*%
%TO.N,unconnected-(U6-(12C2_SDA{slash}UART5_TX)PC12-Pad58)*%
X6350000Y-67310000D03*
%TO.P,U6,59,PC13*%
%TO.N,unconnected-(U6-PC13-Pad59)*%
X31750000Y-67310000D03*
%TO.P,U6,60,PC14*%
%TO.N,unconnected-(U6-PC14-Pad60)*%
X34290000Y-67310000D03*
%TO.P,U6,61,PC15*%
%TO.N,unconnected-(U6-PC15-Pad61)*%
X36830000Y-67310000D03*
%TO.P,U6,62,GND*%
%TO.N,GND*%
X26670000Y-67310000D03*
X11430000Y-64770000D03*
X26670000Y-64770000D03*
X29210000Y-64770000D03*
X13970000Y-6350000D03*
X26670000Y-3810000D03*
X41910000Y-3810000D03*
%TO.P,U6,63*%
%TO.N,N/C*%
X16510000Y-67310000D03*
%TO.P,U6,64*%
X13970000Y-64770000D03*
%TO.P,U6,65*%
X13970000Y-67310000D03*
%TO.P,U6,66*%
X34290000Y-64770000D03*
%TO.P,U6,67*%
X13970000Y-3810000D03*
%TO.P,U6,68*%
X24130000Y-3810000D03*
%TO.P,U6,69*%
X46990000Y-3810000D03*
%TO.P,U6,70*%
X49530000Y-3810000D03*
%TD*%
D10*
%TO.P,C2,1*%
%TO.N,VCC*%
X25440000Y-44450000D03*
%TO.P,C2,2*%
%TO.N,GND1*%
X27940000Y-44450000D03*
%TD*%
%TO.P,C3,1*%
%TO.N,VCC*%
X25400000Y-36830000D03*
%TO.P,C3,2*%
%TO.N,GND1*%
X27900000Y-36830000D03*
%TD*%
D17*
%TO.P,C1,1*%
%TO.N,VCC*%
X58420000Y-26670000D03*
D10*
%TO.P,C1,2*%
%TO.N,GND1*%
X58420000Y-28670000D03*
%TD*%
D12*
%TO.P,J2,1,Pin_1*%
%TO.N,GND1*%
X60960000Y-80010000D03*
D13*
%TO.P,J2,2,Pin_2*%
%TO.N,VCC*%
X63500000Y-80010000D03*
%TO.P,J2,3,Pin_3*%
%TO.N,PWM1*%
X66040000Y-80010000D03*
%TD*%
D12*
%TO.P,J4,1,Pin_1*%
%TO.N,GND1*%
X35560000Y-80010000D03*
D13*
%TO.P,J4,2,Pin_2*%
%TO.N,VCC*%
X38100000Y-80010000D03*
%TO.P,J4,3,Pin_3*%
%TO.N,PWM3*%
X40640000Y-80010000D03*
%TD*%
D10*
%TO.P,R5,1*%
%TO.N,VCC*%
X43180000Y-76200000D03*
D11*
%TO.P,R5,2*%
%TO.N,PWM2*%
X53340000Y-76200000D03*
%TD*%
D18*
%TO.P,J1,*%
%TO.N,*%
X61080000Y-9760000D03*
X61080000Y-23260000D03*
D19*
%TO.P,J1,1,Pin_1*%
%TO.N,GND1*%
X55080000Y-12910000D03*
D20*
%TO.P,J1,2,Pin_2*%
%TO.N,VCC*%
X55080000Y-20110000D03*
%TD*%
D10*
%TO.P,R12,1*%
%TO.N,VCC*%
X5080000Y-76200000D03*
D11*
%TO.P,R12,2*%
%TO.N,PWM5*%
X15240000Y-76200000D03*
%TD*%
D10*
%TO.P,R7,1*%
%TO.N,VCC*%
X30480000Y-76200000D03*
D11*
%TO.P,R7,2*%
%TO.N,PWM3*%
X40640000Y-76200000D03*
%TD*%
D10*
%TO.P,R3,1*%
%TO.N,B6*%
X8890000Y-19050000D03*
D11*
%TO.P,R3,2*%
%TO.N,Net-(R3-Pad2)*%
X19050000Y-19050000D03*
%TD*%
D21*
%TO.N,GND1*%
X45720000Y-80010000D03*
X36830000Y-29210000D03*
X41910000Y-45720000D03*
X34290000Y-34290000D03*
X45720000Y-85090000D03*
X41910000Y-34290000D03*
X20320000Y-80010000D03*
X52070000Y-50800000D03*
X33020000Y-80010000D03*
X33020000Y-85090000D03*
X58420000Y-85090000D03*
X41910000Y-39370000D03*
X58420000Y-80010000D03*
X31750000Y-39370000D03*
X58420000Y-50800000D03*
X20320000Y-85090000D03*
X41910000Y-29210000D03*
X29210000Y-45720000D03*
%TO.N,+5V*%
X26670000Y-52070000D03*
X58420000Y-48260000D03*
%TO.N,B9*%
X3810000Y-8890000D03*
X8890000Y-8890000D03*
%TD*%
D22*
%TO.N,GND1*%
X52070000Y-50800000D02*
X58420000Y-50800000D01*
X20320000Y-80010000D02*
X20320000Y-84860000D01*
X41910000Y-39370000D02*
X31750000Y-39370000D01*
X41910000Y-34290000D02*
X34290000Y-34290000D01*
X58420000Y-80010000D02*
X58420000Y-84860000D01*
X45720000Y-80010000D02*
X45720000Y-84860000D01*
X33020000Y-80010000D02*
X33020000Y-84860000D01*
X29210000Y-45720000D02*
X41910000Y-45720000D01*
X36830000Y-29210000D02*
X41910000Y-29210000D01*
%TO.N,+5V*%
X30480000Y-48260000D02*
X26670000Y-52070000D01*
X58420000Y-48260000D02*
X30480000Y-48260000D01*
%TO.N,B9*%
X8890000Y-8890000D02*
X3810000Y-8890000D01*
%TD*%
M02*
